<svg width="64" height="60" viewBox="0 0 64 60" fill="none" xmlns="http://www.w3.org/2000/svg">
<g id="rh-icon-heart 1" clip-path="url(#clip0_70_1600)">
<path id="Heart" d="M58.496 6.52247C54.9944 3.03286 50.2652 1.05357 45.3219 1.00871C40.3786 0.963851 35.6143 2.85699 32.05 6.28247C13.604 -10.2405 -11.269 15.0245 5.60396 33.2095L31.089 58.6715C31.2134 58.801 31.3626 58.9041 31.5279 58.9745C31.6931 59.0449 31.8709 59.0812 32.0505 59.0812C32.2301 59.0812 32.4078 59.0449 32.573 58.9745C32.7383 58.9041 32.8876 58.801 33.012 58.6715L58.496 33.2095C62.0208 29.6633 63.9993 24.8665 63.9993 19.8665C63.9993 14.8665 62.0208 10.0696 58.496 6.52347V6.52247ZM56.551 31.2635L32.051 55.7865L7.55096 31.2635C-7.28904 15.1115 15.813 -6.70053 31.025 9.16347C31.943 10.1685 33.101 9.29447 33.757 8.46347C49.362 -6.11453 71.131 15.6325 56.557 31.2635H56.551Z" fill="#EE0000"/>
</g>
<defs>
<clipPath id="clip0_70_1600">
<rect width="64" height="58.163" fill="white" transform="translate(0 0.918457)"/>
</clipPath>
</defs>
</svg>
