<svg width="64" height="64" viewBox="0 0 64 64" fill="none" xmlns="http://www.w3.org/2000/svg">
<g id="rh-icon-wrench 1" clip-path="url(#clip0_70_1592)">
<path id="Path 1557" d="M35.521 21.462C34.211 20.105 32.105 22.211 33.462 23.521L40.48 30.539C40.6148 30.6764 40.7754 30.7857 40.9526 30.8605C41.1298 30.9354 41.3201 30.9745 41.5124 30.9754C41.7048 30.9763 41.8955 30.9391 42.0734 30.8659C42.2513 30.7927 42.4129 30.685 42.549 30.549C42.685 30.4129 42.7927 30.2513 42.8659 30.0734C42.9391 29.8955 42.9763 29.7048 42.9754 29.5124C42.9745 29.3201 42.9354 29.1298 42.8605 28.9526C42.7856 28.7754 42.6764 28.6148 42.539 28.48L35.521 21.462Z" fill="#EE0000"/>
<path id="Path 1558" d="M63.991 13.25C64.0119 12.8305 63.8684 12.4194 63.591 12.104L58.912 7.42498C58.7789 7.28624 58.619 7.17584 58.4421 7.10043C58.2652 7.02502 58.0748 6.98614 57.8825 6.98614C57.6902 6.98614 57.4999 7.02502 57.323 7.10043C57.146 7.17584 56.9862 7.28624 56.853 7.42498L43.844 20.432L32.48 9.03899L41.323 3.30698L45.3 7.28398L40.48 12.104C40.2113 12.3779 40.0616 12.7469 40.0634 13.1306C40.0653 13.5143 40.2185 13.8818 40.4899 14.1531C40.7612 14.4245 41.1287 14.5777 41.5124 14.5796C41.8962 14.5814 42.2651 14.4317 42.539 14.163L48.387 8.31398C48.5258 8.18081 48.6362 8.02096 48.7116 7.84405C48.787 7.66714 48.8259 7.4768 48.8259 7.28448C48.8259 7.09217 48.787 6.90183 48.7116 6.72492C48.6362 6.54801 48.5258 6.38816 48.387 6.25498L42.539 0.406985C42.3124 0.198801 42.0287 0.0631033 41.7243 0.0173106C41.42 -0.028482 41.1089 0.017719 40.831 0.149984C40.714 0.149984 29.485 7.54198 29.368 7.56598C29.0572 7.79196 28.8418 8.12573 28.7639 8.50206C28.6861 8.87839 28.7514 9.27023 28.947 9.60099C28.947 9.60099 30.561 11.285 30.702 11.401C28.5467 13.4964 27.0488 16.1745 26.3917 19.1078C25.7346 22.0411 25.9467 25.1023 27.002 27.917L1.88003 53.043C0.676346 54.2467 0.00012207 55.8792 0.00012207 57.5815C0.00012207 59.2837 0.676346 60.9163 1.88003 62.12C3.08372 63.3237 4.71626 63.9999 6.41853 63.9999C8.1208 63.9999 9.75335 63.3237 10.957 62.12L36.082 36.995C38.3344 37.8797 40.7702 38.1952 43.1737 37.9137C45.5771 37.6322 47.8741 36.7623 49.861 35.381L63.781 13.929C63.8969 13.7197 63.9687 13.489 63.992 13.251L63.991 13.25ZM36.344 33.954C36.0704 33.845 35.7716 33.8153 35.4819 33.8684C35.1922 33.9215 34.9233 34.0551 34.706 34.254L8.96903 59.991C8.3045 60.6148 7.42332 60.9556 6.51197 60.9412C5.60063 60.9268 4.73065 60.5584 4.08615 59.9139C3.44166 59.2694 3.07322 58.3994 3.05883 57.488C3.04444 56.5767 3.38521 55.6955 4.00903 55.031L29.744 29.299C29.9545 29.0784 30.0939 28.7997 30.144 28.499C30.2133 28.2226 30.2133 27.9334 30.144 27.657C29.0856 25.2974 28.7783 22.6695 29.2638 20.1294C29.7493 17.5893 31.0041 15.2599 32.858 13.457L42.913 23.52C43.0462 23.6587 43.2061 23.7691 43.383 23.8445C43.5599 23.92 43.7502 23.9588 43.9425 23.9588C44.1348 23.9588 44.3252 23.92 44.5021 23.8445C44.679 23.7691 44.8389 23.6587 44.972 23.52L57.885 10.514L60.692 13.321L47.615 33.463C45.9017 34.4092 43.9925 34.9458 42.0371 35.031C40.0817 35.1162 38.1332 34.7476 36.344 33.954Z" fill="#EE0000"/>
<path id="Path 1559" d="M6.41804 56.1311C6.12554 56.1263 5.83823 56.2087 5.5927 56.3677C5.34716 56.5268 5.15451 56.7553 5.03926 57.0242C4.924 57.293 4.89137 57.5901 4.9455 57.8776C4.99964 58.1651 5.13809 58.43 5.34325 58.6385C5.5484 58.8471 5.81098 58.9899 6.09754 59.0487C6.3841 59.1076 6.6817 59.0798 6.95244 58.969C7.22318 58.8582 7.45481 58.6693 7.61787 58.4264C7.78092 58.1835 7.86801 57.8976 7.86804 57.6051C7.8681 57.2182 7.7161 56.8469 7.44484 56.5712C7.17358 56.2954 6.8048 56.1374 6.41804 56.1311Z" fill="#EE0000"/>
</g>
<defs>
<clipPath id="clip0_70_1592">
<rect width="63.993" height="64" fill="white"/>
</clipPath>
</defs>
</svg>
