<svg width="64" height="62" viewBox="0 0 64 62" fill="none" xmlns="http://www.w3.org/2000/svg">
<g id="rh-icon-circuit 1" clip-path="url(#clip0_70_1562)">
<path id="Path 76" d="M58.062 56.6569C57.8766 56.6538 57.6925 56.6881 57.5206 56.7576C57.3488 56.8271 57.1926 56.9304 57.0615 57.0615C56.9304 57.1926 56.8271 57.3488 56.7576 57.5206C56.6881 57.6925 56.6538 57.8766 56.6569 58.062V58.9199H41.3369V45.688C42.748 45.3443 43.9843 44.4954 44.8118 43.3019C45.6393 42.1084 46.0007 40.653 45.8276 39.211C45.6546 37.769 44.9591 36.4405 43.8727 35.4766C42.7863 34.5128 41.3843 33.9806 39.9319 33.9806C38.4796 33.9806 37.0776 34.5128 35.9912 35.4766C34.9048 36.4405 34.2093 37.769 34.0363 39.211C33.8632 40.653 34.2246 42.1084 35.0521 43.3019C35.8796 44.4954 37.1159 45.3443 38.527 45.688V58.9199H20.94V51.8519L27.331 45.4609C27.4636 45.331 27.5683 45.1752 27.6385 45.0032C27.7086 44.8312 27.7428 44.6467 27.739 44.4609V34.3569C29.15 34.0133 30.3863 33.1644 31.2138 31.9709C32.0413 30.7774 32.4027 29.322 32.2296 27.88C32.0566 26.438 31.3611 25.1095 30.2747 24.1456C29.1883 23.1818 27.7863 22.6496 26.334 22.6496C24.8816 22.6496 23.4796 23.1818 22.3932 24.1456C21.3068 25.1095 20.6113 26.438 20.4383 27.88C20.2652 29.322 20.6266 30.7774 21.4541 31.9709C22.2816 33.1644 23.5179 34.0133 24.929 34.3569V43.875L18.538 50.2659C18.4053 50.3959 18.3006 50.5517 18.2304 50.7237C18.1603 50.8957 18.1261 51.0802 18.13 51.2659V58.9199H2.80995V2.80995H18.13V12.147L11.7389 18.538C11.6063 18.6679 11.5016 18.8237 11.4314 18.9957C11.3613 19.1677 11.3271 19.3522 11.331 19.538V34.1779C9.91986 34.5216 8.68364 35.3705 7.85613 36.564C7.02861 37.7575 6.6672 39.2129 6.84025 40.6549C7.01331 42.0969 7.70882 43.4254 8.79524 44.3893C9.88165 45.3531 11.2836 45.8853 12.7359 45.8853C14.1883 45.8853 15.5903 45.3531 16.6767 44.3893C17.7631 43.4254 18.4586 42.0969 18.6316 40.6549C18.8047 39.2129 18.4433 37.7575 17.6158 36.564C16.7883 35.3705 15.552 34.5216 14.141 34.1779V20.12L20.532 13.7289C20.6646 13.599 20.7693 13.4432 20.8395 13.2712C20.9096 13.0992 20.9438 12.9147 20.94 12.7289V2.80995H38.527V11.51C37.1159 11.8536 35.8796 12.7025 35.0521 13.896C34.2246 15.0895 33.8632 16.5449 34.0363 17.9869C34.2093 19.4289 34.9048 20.7574 35.9912 21.7213C37.0776 22.6851 38.4796 23.2173 39.9319 23.2173C41.3843 23.2173 42.7863 22.6851 43.8727 21.7213C44.9591 20.7574 45.6546 19.4289 45.8276 17.9869C46.0007 16.5449 45.6393 15.0895 44.8118 13.896C43.9843 12.7025 42.748 11.8536 41.3369 11.51V2.80995H56.6569V9.06495H53.5299C53.3442 9.06116 53.1595 9.09487 52.9871 9.16407C52.8146 9.23328 52.6579 9.33655 52.5263 9.46771C52.3946 9.59887 52.2908 9.75523 52.221 9.92743C52.1512 10.0996 52.1168 10.2842 52.1199 10.47V24.07C52.1168 24.2553 52.1511 24.4394 52.2206 24.6113C52.2901 24.7831 52.3934 24.9393 52.5245 25.0704C52.6556 25.2015 52.8118 25.3048 52.9836 25.3743C53.1555 25.4438 53.3396 25.4781 53.5249 25.475H56.652V28.6019C56.652 28.9746 56.8 29.3319 57.0635 29.5954C57.327 29.8589 57.6843 30.007 58.0569 30.007C58.4296 30.007 58.7869 29.8589 59.0504 29.5954C59.3139 29.3319 59.4619 28.9746 59.4619 28.6019V24.068C59.4651 23.8826 59.4308 23.6985 59.3613 23.5266C59.2918 23.3548 59.1885 23.1986 59.0574 23.0675C58.9263 22.9364 58.7701 22.8331 58.5983 22.7636C58.4264 22.6941 58.2423 22.6598 58.0569 22.663H54.9349V11.8749H58.062C58.2473 11.8781 58.4314 11.8438 58.6033 11.7743C58.7751 11.7048 58.9313 11.6015 59.0624 11.4704C59.1935 11.3393 59.2968 11.1831 59.3663 11.0113C59.4358 10.8394 59.4701 10.6553 59.4669 10.47V1.40495C59.4701 1.21959 59.4358 1.03549 59.3663 0.863621C59.2968 0.691752 59.1935 0.535625 59.0624 0.404534C58.9313 0.273443 58.7751 0.170067 58.6033 0.100561C58.4314 0.0310546 58.2473 -0.00316096 58.062 -4.94679e-05H1.40495C1.21959 -0.00316096 1.03549 0.0310546 0.863621 0.100561C0.691752 0.170067 0.535625 0.273443 0.404534 0.404534C0.273443 0.535625 0.170067 0.691752 0.100561 0.863621C0.0310546 1.03549 -0.00316096 1.21959 -4.94679e-05 1.40495V60.3279C-0.00316096 60.5133 0.0310546 60.6974 0.100561 60.8693C0.170067 61.0411 0.273443 61.1973 0.404534 61.3284C0.535625 61.4595 0.691752 61.5628 0.863621 61.6323C1.03549 61.7018 1.21959 61.7361 1.40495 61.7329H58.062C58.2473 61.7361 58.4314 61.7018 58.6033 61.6323C58.7751 61.5628 58.9313 61.4595 59.0624 61.3284C59.1935 61.1973 59.2968 61.0411 59.3663 60.8693C59.4358 60.6974 59.4701 60.5133 59.4669 60.3279V58.062C59.4701 57.8766 59.4358 57.6925 59.3663 57.5206C59.2968 57.3488 59.1935 57.1926 59.0624 57.0615C58.9313 56.9304 58.7751 56.8271 58.6033 56.7576C58.4314 56.6881 58.2473 56.6538 58.062 56.6569ZM36.8039 39.9319C36.8039 39.3135 36.9873 38.7089 37.3309 38.1947C37.6745 37.6805 38.1629 37.2797 38.7343 37.043C39.3057 36.8063 39.9344 36.7444 40.541 36.865C41.1476 36.9857 41.7048 37.2835 42.1421 37.7208C42.5794 38.1581 42.8772 38.7153 42.9979 39.3219C43.1185 39.9285 43.0566 40.5572 42.8199 41.1286C42.5832 41.7 42.1824 42.1884 41.6682 42.532C41.154 42.8756 40.5494 43.0589 39.931 43.0589C39.1016 43.0589 38.3063 42.7295 37.7198 42.1431C37.1334 41.5566 36.8039 40.7613 36.8039 39.9319ZM23.204 28.601C23.204 27.9825 23.3873 27.3779 23.7309 26.8637C24.0745 26.3495 24.5629 25.9487 25.1343 25.712C25.7057 25.4753 26.3344 25.4134 26.941 25.534C27.5476 25.6547 28.1048 25.9525 28.5421 26.3898C28.9794 26.8271 29.2772 27.3843 29.3979 27.9909C29.5185 28.5975 29.4566 29.2262 29.2199 29.7976C28.9832 30.369 28.5825 30.8574 28.0682 31.201C27.554 31.5446 26.9494 31.728 26.331 31.728C25.5016 31.728 24.7063 31.3985 24.1198 30.8121C23.5334 30.2256 23.204 29.4303 23.204 28.601ZM15.8639 39.9319C15.8639 40.5504 15.6806 41.155 15.337 41.6692C14.9934 42.1834 14.505 42.5842 13.9336 42.8209C13.3622 43.0576 12.7335 43.1195 12.1269 42.9989C11.5203 42.8782 10.9631 42.5804 10.5258 42.1431C10.0885 41.7058 9.79069 41.1486 9.67003 40.542C9.54938 39.9354 9.6113 39.3067 9.84798 38.7353C10.0847 38.1639 10.4854 37.6755 10.9997 37.3319C11.5139 36.9883 12.1185 36.805 12.737 36.805C13.5663 36.805 14.3616 37.1344 14.9481 37.7208C15.5345 38.3073 15.8639 39.1026 15.8639 39.9319ZM43.0639 17.269C43.0639 17.8874 42.8806 18.492 42.537 19.0062C42.1934 19.5205 41.705 19.9212 41.1336 20.1579C40.5622 20.3946 39.9335 20.4565 39.3269 20.3359C38.7203 20.2152 38.1631 19.9174 37.7258 19.4801C37.2885 19.0428 36.9907 18.4856 36.87 17.879C36.7494 17.2724 36.8113 16.6437 37.048 16.0723C37.2847 15.5009 37.6854 15.0125 38.1997 14.6689C38.7139 14.3253 39.3185 14.1419 39.937 14.1419C40.3476 14.1419 40.7542 14.2228 41.1336 14.38C41.513 14.5371 41.8577 14.7675 42.1481 15.0578C42.4384 15.3482 42.6688 15.6929 42.8259 16.0723C42.9831 16.4517 43.0639 16.8583 43.0639 17.269Z" fill="#EE0000"/>
<path id="Path 77" d="M62.594 33.994H53.529C53.3436 33.9909 53.1595 34.0251 52.9876 34.0946C52.8158 34.1641 52.6597 34.2675 52.5286 34.3986C52.3975 34.5296 52.2941 34.6858 52.2246 34.8576C52.1551 35.0295 52.1209 35.2136 52.124 35.399V51.263C52.1209 51.4483 52.1551 51.6324 52.2246 51.8043C52.2941 51.9762 52.3975 52.1323 52.5286 52.2634C52.6597 52.3945 52.8158 52.4979 52.9876 52.5674C53.1595 52.6369 53.3436 52.6711 53.529 52.668H62.594C62.7793 52.6711 62.9634 52.6369 63.1353 52.5674C63.3072 52.4979 63.4633 52.3945 63.5944 52.2634C63.7255 52.1323 63.8289 51.9762 63.8984 51.8043C63.9679 51.6324 64.0021 51.4483 63.999 51.263V35.399C64.0021 35.2136 63.9679 35.0295 63.8984 34.8576C63.8289 34.6858 63.7255 34.5296 63.5944 34.3986C63.4633 34.2675 63.3072 34.1641 63.1353 34.0946C62.9634 34.0251 62.7793 33.9909 62.594 33.994ZM61.189 49.858H54.934V36.804H61.189V49.858Z" fill="#EE0000"/>
</g>
<defs>
<clipPath id="clip0_70_1562">
<rect width="64" height="61.734" fill="white"/>
</clipPath>
</defs>
</svg>
