<svg width="45" height="64" viewBox="0 0 45 64" fill="none" xmlns="http://www.w3.org/2000/svg">
<g id="rh-icon-telecom 1" clip-path="url(#clip0_70_1582)">
<path id="Path 1157" d="M25.8661 21.029C26.8635 20.2628 27.5959 19.2034 27.9605 17.9997C28.3251 16.7959 28.3036 15.5082 27.899 14.3173C27.4944 13.1264 26.727 12.0921 25.7045 11.3596C24.682 10.6272 23.4558 10.2333 22.1981 10.2333C20.9403 10.2333 19.7141 10.6272 18.6916 11.3596C17.6692 12.0921 16.9018 13.1264 16.4971 14.3173C16.0925 15.5082 16.071 16.7959 16.4356 17.9997C16.8002 19.2034 17.5326 20.2628 18.5301 21.029L3.60506 61.814C3.54143 61.9913 3.51335 62.1794 3.52241 62.3675C3.53147 62.5557 3.5775 62.7402 3.65787 62.9105C3.73824 63.0809 3.85138 63.2337 3.99082 63.3604C4.13026 63.487 4.29328 63.5849 4.47056 63.6485C4.64785 63.7122 4.83593 63.7402 5.02406 63.7312C5.2122 63.7221 5.39671 63.6761 5.56706 63.5957C5.73741 63.5153 5.89026 63.4022 6.01689 63.2628C6.14351 63.1233 6.24143 62.9603 6.30506 62.783L9.00506 55.378L22.2051 45.505L35.2621 55.378L37.9841 62.852C38.0285 63.0573 38.1168 63.2505 38.2431 63.4183C38.3694 63.5862 38.5305 63.7246 38.7154 63.8242C38.9004 63.9237 39.1047 63.982 39.3143 63.995C39.5239 64.008 39.7339 63.9754 39.9297 63.8995C40.1255 63.8235 40.3025 63.706 40.4485 63.5551C40.5946 63.4041 40.7061 63.2233 40.7755 63.0251C40.845 62.8269 40.8706 62.616 40.8507 62.4069C40.8307 62.1978 40.7657 61.9956 40.6601 61.814L25.8661 21.029ZM22.1981 12.978C22.9937 13.0443 23.7354 13.4073 24.276 13.9948C24.8166 14.5824 25.1167 15.3516 25.1167 16.15C25.1167 16.9484 24.8166 17.7177 24.276 18.3052C23.7354 18.8928 22.9937 19.2557 22.1981 19.322C21.4024 19.2557 20.6607 18.8928 20.1201 18.3052C19.5795 17.7177 19.2795 16.9484 19.2795 16.15C19.2795 15.3516 19.5795 14.5824 20.1201 13.9948C20.6607 13.4073 21.4024 13.0443 22.1981 12.978ZM22.1981 22.205C22.5283 22.2288 22.8598 22.2288 23.1901 22.205L28.6341 37.177L22.1981 41.903L15.6931 36.923L21.1141 22.023C21.4684 22.1202 21.8315 22.1822 22.1981 22.208V22.205ZM10.7981 50.464L14.6551 39.853L19.8911 43.703L10.7981 50.464ZM24.6441 43.703L29.7171 39.903L33.5001 50.353L24.6441 43.703Z" fill="#EE0000"/>
<path id="Path 1158" d="M11.402 26.957C11.6712 27.2262 12.0363 27.3774 12.417 27.3774C12.7977 27.3774 13.1628 27.2262 13.432 26.957C13.7012 26.6878 13.8524 26.3227 13.8524 25.942C13.8524 25.5613 13.7012 25.1962 13.432 24.927C11.1161 22.5973 9.81625 19.4459 9.81625 16.161C9.81625 12.8761 11.1161 9.72467 13.432 7.395C14.77 6.08 12.694 4.004 11.402 5.365C8.55652 8.23769 6.96021 12.1176 6.96021 16.161C6.96021 20.2044 8.55652 24.0843 11.402 26.957Z" fill="#EE0000"/>
<path id="Path 1159" d="M30.965 26.957C31.0963 27.0938 31.2539 27.2026 31.4283 27.277C31.6027 27.3513 31.7904 27.3896 31.98 27.3896C32.1696 27.3896 32.3573 27.3513 32.5317 27.277C32.7061 27.2026 32.8637 27.0938 32.995 26.957C35.8405 24.0843 37.4368 20.2044 37.4368 16.161C37.4368 12.1176 35.8405 8.23769 32.995 5.365C31.703 4.004 29.627 6.08 30.965 7.395C33.2809 9.72467 34.5807 12.8761 34.5807 16.161C34.5807 19.4459 33.2809 22.5973 30.965 24.927C30.7 25.1984 30.5517 25.5627 30.5517 25.942C30.5517 26.3213 30.7 26.6856 30.965 26.957Z" fill="#EE0000"/>
<path id="Path 1160" d="M7.52309 32.3059C7.71126 32.307 7.89778 32.2708 8.07195 32.1996C8.24613 32.1284 8.40453 32.0235 8.53809 31.8909C8.80453 31.6157 8.95349 31.2476 8.95349 30.8644C8.95349 30.4813 8.80453 30.1132 8.53809 29.8379C6.74408 28.0449 5.32093 25.9159 4.34996 23.5727C3.37899 21.2295 2.87923 18.7179 2.87923 16.1814C2.87923 13.645 3.37899 11.1334 4.34996 8.79019C5.32093 6.44696 6.74408 4.318 8.53809 2.52495C8.68245 2.39236 8.79848 2.23194 8.87922 2.05333C8.95995 1.87473 9.00372 1.68164 9.00788 1.48568C9.01204 1.28972 8.97651 1.09494 8.90343 0.913074C8.83035 0.731204 8.72123 0.566 8.58263 0.427405C8.44404 0.28881 8.27883 0.179688 8.09696 0.106607C7.91509 0.0335264 7.72032 -0.00200261 7.52436 0.00215856C7.3284 0.00631972 7.13531 0.0500851 6.95671 0.13082C6.7781 0.211556 6.61768 0.327592 6.48509 0.471946C2.32952 4.64411 -0.00366211 10.2928 -0.00366211 16.1814C-0.00366211 22.0701 2.32952 27.7188 6.48509 31.8909C6.76598 32.1558 7.137 32.3042 7.52309 32.3059Z" fill="#EE0000"/>
<path id="Path 1161" d="M35.8551 29.818C35.6016 30.0939 35.4645 30.4571 35.4725 30.8317C35.4805 31.2063 35.6328 31.5634 35.8977 31.8283C36.1627 32.0932 36.5197 32.2456 36.8943 32.2535C37.2689 32.2615 37.6321 32.1244 37.9081 31.871C42.0636 27.6988 44.3968 22.0501 44.3968 16.1615C44.3968 10.2729 42.0636 4.62415 37.9081 0.451978C37.6321 0.198524 37.2689 0.0614651 36.8943 0.0694196C36.5197 0.0773741 36.1627 0.229727 35.8977 0.494666C35.6328 0.759605 35.4805 1.11665 35.4725 1.49125C35.4645 1.86584 35.6016 2.22903 35.8551 2.50498C37.6491 4.29803 39.0722 6.42699 40.0432 8.77022C41.0142 11.1135 41.5139 13.625 41.5139 16.1615C41.5139 18.6979 41.0142 21.2095 40.0432 23.5527C39.0722 25.896 37.6491 28.0249 35.8551 29.818Z" fill="#EE0000"/>
</g>
<defs>
<clipPath id="clip0_70_1582">
<rect width="44.397" height="64" fill="white"/>
</clipPath>
</defs>
</svg>
