<svg width="64" height="64" viewBox="0 0 64 64" fill="none" xmlns="http://www.w3.org/2000/svg">
<g id="rh-icon-bank-safe 1" clip-path="url(#clip0_70_1569)">
<g id="Bank safe">
<path id="Path 1410" d="M62.543 0H1.457C1.07058 0 0.699986 0.153505 0.426745 0.426745C0.153505 0.699986 0 1.07058 0 1.457V62.543C0 62.9294 0.153505 63.3 0.426745 63.5733C0.699986 63.8465 1.07058 64 1.457 64H62.543C62.9294 64 63.3 63.8465 63.5733 63.5733C63.8465 63.3 64 62.9294 64 62.543V1.457C64 1.07058 63.8465 0.699986 63.5733 0.426745C63.3 0.153505 62.9294 0 62.543 0ZM61.087 61.087H2.913V2.913H61.087V61.087Z" fill="#EE0000"/>
<path id="Path 1411" d="M10.8549 14.6609C11.2414 14.6609 11.612 14.5074 11.8852 14.2342C12.1584 13.961 12.3119 13.5904 12.3119 13.2039V12.3109H51.6889V51.6889H12.3109V50.7959C12.301 50.4163 12.1432 50.0555 11.8711 49.7905C11.5991 49.5254 11.2343 49.3771 10.8544 49.3771C10.4746 49.3771 10.1098 49.5254 9.83778 49.7905C9.56572 50.0555 9.4079 50.4163 9.39795 50.7959V53.1449C9.39795 53.5314 9.55145 53.902 9.82469 54.1752C10.0979 54.4484 10.4685 54.6019 10.8549 54.6019H53.1449C53.5314 54.6019 53.902 54.4484 54.1752 54.1752C54.4484 53.902 54.6019 53.5314 54.6019 53.1449V10.8549C54.6019 10.4685 54.4484 10.0979 54.1752 9.82469C53.902 9.55145 53.5314 9.39795 53.1449 9.39795H10.8549C10.4685 9.39795 10.0979 9.55145 9.82469 9.82469C9.55145 10.0979 9.39795 10.4685 9.39795 10.8549V13.2039C9.39795 13.5904 9.55145 13.961 9.82469 14.2342C10.0979 14.5074 10.4685 14.6609 10.8549 14.6609Z" fill="#EE0000"/>
<path id="Path 1412" d="M8.50498 28.757H13.205C13.3963 28.757 13.5858 28.7193 13.7625 28.6461C13.9393 28.5729 14.0999 28.4655 14.2352 28.3302C14.3705 28.195 14.4778 28.0343 14.5511 27.8576C14.6243 27.6808 14.662 27.4913 14.662 27.3V17.9C14.662 17.5136 14.5085 17.143 14.2352 16.8697C13.962 16.5965 13.5914 16.443 13.205 16.443H8.50498C8.31339 16.443 8.12368 16.4808 7.94671 16.5542C7.76975 16.6276 7.60899 16.7352 7.47366 16.8708C7.33833 17.0064 7.23107 17.1674 7.15802 17.3445C7.08498 17.5216 7.04758 17.7114 7.04798 17.903V27.303C7.04798 27.6894 7.20148 28.06 7.47472 28.3332C7.74796 28.6065 8.11856 28.76 8.50498 28.76V28.757ZM9.96198 19.357H11.748V25.842H9.96098L9.96198 19.357Z" fill="#EE0000"/>
<path id="Path 1413" d="M8.50498 47.553H13.205C13.5914 47.553 13.962 47.3995 14.2352 47.1263C14.5085 46.853 14.662 46.4824 14.662 46.096V36.696C14.662 36.3096 14.5085 35.939 14.2352 35.6658C13.962 35.3925 13.5914 35.239 13.205 35.239H8.50498C8.31339 35.239 8.12368 35.2768 7.94671 35.3502C7.76975 35.4236 7.60899 35.5312 7.47366 35.6668C7.33833 35.8024 7.23107 35.9634 7.15802 36.1405C7.08498 36.3176 7.04758 36.5074 7.04798 36.699V46.099C7.04877 46.4849 7.20263 46.8547 7.47578 47.1273C7.74894 47.3999 8.11908 47.553 8.50498 47.553ZM9.96198 38.153H11.748V44.638H9.96098L9.96198 38.153Z" fill="#EE0000"/>
<path id="Path 1414" d="M26.267 42.431C26.4007 42.5704 26.5613 42.6813 26.7389 42.7571C26.9166 42.8328 27.1078 42.8719 27.301 42.8719C27.4941 42.8719 27.6853 42.8328 27.863 42.7571C28.0407 42.6813 28.2012 42.5704 28.335 42.431L31.812 39.048C33.246 40.0466 34.9515 40.5819 36.699 40.5819C38.4464 40.5819 40.1519 40.0466 41.586 39.048L45.063 42.525C45.3414 42.7764 45.7058 42.9112 46.0807 42.9015C46.4557 42.8917 46.8126 42.7382 47.0776 42.4727C47.3426 42.2072 47.4954 41.8501 47.5044 41.4751C47.5134 41.1001 47.3779 40.7359 47.126 40.458L43.743 36.887C44.7416 35.453 45.2769 33.7475 45.2769 32C45.2769 30.2526 44.7416 28.5471 43.743 27.113L47.226 23.636C48.589 22.32 46.474 20.206 45.158 21.568L41.586 24.951C40.1519 23.9525 38.4464 23.4171 36.699 23.4171C34.9515 23.4171 33.246 23.9525 31.812 24.951L28.335 21.474C27.019 20.111 24.905 22.226 26.267 23.542L29.65 27.113C28.6514 28.5471 28.1161 30.2526 28.1161 32C28.1161 33.7475 28.6514 35.453 29.65 36.887L26.173 40.364C26.0395 40.504 25.9357 40.6696 25.8679 40.8507C25.8001 41.0319 25.7697 41.2249 25.7785 41.4181C25.7872 41.6113 25.835 41.8008 25.919 41.975C26.003 42.1493 26.1213 42.3037 26.267 42.431ZM42.291 32.001C42.198 33.4177 41.5697 34.746 40.5335 35.7164C39.4972 36.6869 38.1307 37.2269 36.711 37.2269C35.2913 37.2269 33.9247 36.6869 32.8885 35.7164C31.8523 34.746 31.2239 33.4177 31.131 32.001C31.2239 30.5844 31.8523 29.2561 32.8885 28.2856C33.9247 27.3152 35.2913 26.7752 36.711 26.7752C38.1307 26.7752 39.4972 27.3152 40.5335 28.2856C41.5697 29.2561 42.198 30.5844 42.291 32.001Z" fill="#EE0000"/>
<path id="Ellipse 11" d="M36.6989 33.457C37.5036 33.457 38.1559 32.8046 38.1559 32C38.1559 31.1953 37.5036 30.543 36.6989 30.543C35.8943 30.543 35.2419 31.1953 35.2419 32C35.2419 32.8046 35.8943 33.457 36.6989 33.457Z" fill="#EE0000"/>
</g>
</g>
<defs>
<clipPath id="clip0_70_1569">
<rect width="64" height="64" fill="white"/>
</clipPath>
</defs>
</svg>
