<svg width="64" height="64" viewBox="0 0 64 64" fill="none" xmlns="http://www.w3.org/2000/svg">
<g id="rh-icon-fighter-jet 1" clip-path="url(#clip0_70_1552)">
<path id="Path 1213" d="M1.45496 35.101C1.26299 35.0978 1.07233 35.1332 0.894337 35.2052C0.716341 35.2771 0.554648 35.3842 0.418886 35.52C0.283124 35.6557 0.176071 35.8174 0.1041 35.9954C0.0321291 36.1734 -0.00328693 36.3641 -3.94037e-05 36.556V52.982C-3.94037e-05 53.3679 0.153255 53.738 0.42612 54.0109C0.698985 54.2837 1.06907 54.437 1.45496 54.437C1.84085 54.437 2.21094 54.2837 2.4838 54.0109C2.75667 53.738 2.90996 53.3679 2.90996 52.982V36.556C2.91321 36.3641 2.87779 36.1734 2.80582 35.9954C2.73385 35.8174 2.6268 35.6557 2.49104 35.52C2.35527 35.3842 2.19358 35.2771 2.01558 35.2052C1.83759 35.1332 1.64693 35.0978 1.45496 35.101Z" fill="#EE0000"/>
<path id="Path 1214" d="M62.465 35.101C62.273 35.0978 62.0823 35.1332 61.9043 35.2052C61.7264 35.2771 61.5647 35.3842 61.4289 35.52C61.2931 35.6557 61.1861 35.8174 61.1141 35.9954C61.0421 36.1734 61.0067 36.3641 61.01 36.556V52.982C61.01 53.3679 61.1633 53.738 61.4361 54.0109C61.709 54.2837 62.0791 54.437 62.465 54.437C62.8509 54.437 63.2209 54.2837 63.4938 54.0109C63.7667 53.738 63.92 53.3679 63.92 52.982V36.556C63.9232 36.3641 63.8878 36.1734 63.8158 35.9954C63.7439 35.8174 63.6368 35.6557 63.501 35.52C63.3653 35.3842 63.2036 35.2771 63.0256 35.2052C62.8476 35.1332 62.6569 35.0978 62.465 35.101Z" fill="#EE0000"/>
<path id="Path 1215" d="M40.454 25.316V17.056C40.4484 14.1371 39.8673 11.2481 38.7439 8.55405C37.6205 5.86005 35.9768 3.41404 33.907 1.35599C33.133 0.487991 32.053 -0.639009 30.927 0.440991C28.5771 2.54867 26.698 5.12809 25.4123 8.01096C24.1265 10.8938 23.463 14.0154 23.465 17.172V25.432L5.23299 40.217C5.06188 40.3554 4.92438 40.5307 4.83084 40.7299C4.73731 40.9291 4.69017 41.1469 4.69299 41.367V50.753C4.69163 50.9789 4.74287 51.202 4.84267 51.4046C4.94248 51.6073 5.08809 51.7839 5.26798 51.9205C5.44787 52.0571 5.6571 52.15 5.8791 52.1917C6.1011 52.2335 6.32976 52.2229 6.54699 52.161L21.119 48.008V50.355L16.661 57.019C16.4704 57.3012 16.3849 57.6413 16.4192 57.98C16.4536 58.3188 16.6057 58.6348 16.849 58.873L21.542 63.566C21.7576 63.7858 22.0374 63.9315 22.3411 63.9821C22.6448 64.0328 22.9567 63.9858 23.232 63.848L27.925 61.501C28.2309 61.3038 28.4532 61.0006 28.5494 60.6496C28.6457 60.2986 28.609 59.9245 28.4465 59.5988C28.284 59.2732 28.0071 59.019 27.6687 58.8848C27.3304 58.7507 26.9545 58.7461 26.613 58.872L22.855 60.749L19.755 57.487C19.966 57.018 24.448 51.058 24.049 50.635V45.942C24.0504 45.7161 23.9991 45.493 23.8993 45.2904C23.7995 45.0877 23.6539 44.9111 23.474 44.7745C23.2941 44.6379 23.0849 44.545 22.8629 44.5033C22.6409 44.4615 22.4122 44.472 22.195 44.534L7.60299 48.688V41.953L25.835 27.17C26.0069 27.0378 26.1454 26.8669 26.2392 26.6714C26.333 26.4758 26.3795 26.2609 26.375 26.044V17.056C26.3671 11.9532 28.3743 7.05365 31.96 3.42299C35.5457 7.05365 37.5528 11.9532 37.545 17.056V26.02C37.5405 26.2369 37.587 26.4518 37.6808 26.6474C37.7746 26.8429 37.913 27.0138 38.085 27.146L56.313 41.953V48.688L41.745 44.534C41.5278 44.472 41.2991 44.4615 41.0771 44.5033C40.8551 44.545 40.6459 44.6379 40.466 44.7745C40.2861 44.9111 40.1405 45.0877 40.0407 45.2904C39.9409 45.493 39.8896 45.7161 39.891 45.942V50.635C39.562 51.035 43.974 57.064 44.162 57.487L41.062 60.587L37.313 58.707C36.9716 58.5809 36.5957 58.5852 36.2572 58.719C35.9188 58.8529 35.6417 59.1069 35.4789 59.4324C35.3162 59.758 35.2792 60.1321 35.3752 60.4832C35.4711 60.8342 35.6933 61.1375 35.999 61.335L40.689 63.679C40.9642 63.8166 41.2759 63.8634 41.5794 63.8128C41.8828 63.7621 42.1624 63.6165 42.378 63.397L47.071 58.704C47.3143 58.4658 47.4664 58.1498 47.5007 57.811C47.5351 57.4723 47.4495 57.1322 47.259 56.85L42.801 50.186V47.843L57.373 51.996C57.5902 52.0579 57.8189 52.0685 58.0409 52.0267C58.2629 51.985 58.4721 51.8921 58.652 51.7555C58.8319 51.6189 58.9775 51.4423 59.0773 51.2396C59.1771 51.037 59.2284 50.8139 59.227 50.588V41.249C59.2298 41.0289 59.1827 40.8111 59.0891 40.6119C58.9956 40.4127 58.8581 40.2374 58.687 40.099L40.454 25.316Z" fill="#EE0000"/>
<path id="Path 1216" d="M31.96 13.982C31.768 13.9788 31.5773 14.0142 31.3993 14.0862C31.2213 14.1581 31.0597 14.2652 30.9239 14.4009C30.7881 14.5367 30.6811 14.6984 30.6091 14.8764C30.5371 15.0544 30.5017 15.245 30.505 15.437V24.823C30.505 25.2089 30.6583 25.579 30.9311 25.8519C31.204 26.1247 31.5741 26.278 31.96 26.278C32.3459 26.278 32.7159 26.1247 32.9888 25.8519C33.2617 25.579 33.415 25.2089 33.415 24.823V15.437C33.4182 15.245 33.3828 15.0544 33.3108 14.8764C33.2389 14.6984 33.1318 14.5367 32.996 14.4009C32.8603 14.2652 32.6986 14.1581 32.5206 14.0862C32.3426 14.0142 32.1519 13.9788 31.96 13.982Z" fill="#EE0000"/>
<path id="Path 1217" d="M31.96 49.18C31.768 49.1768 31.5773 49.2122 31.3993 49.2842C31.2213 49.3561 31.0597 49.4632 30.9239 49.5989C30.7881 49.7347 30.6811 49.8964 30.6091 50.0744C30.5371 50.2524 30.5017 50.443 30.505 50.635V62.368C30.505 62.7539 30.6583 63.124 30.9311 63.3969C31.204 63.6697 31.5741 63.823 31.96 63.823C32.3459 63.823 32.7159 63.6697 32.9888 63.3969C33.2617 63.124 33.415 62.7539 33.415 62.368V50.635C33.4182 50.443 33.3828 50.2524 33.3108 50.0744C33.2389 49.8964 33.1318 49.7347 32.996 49.5989C32.8603 49.4632 32.6986 49.3561 32.5206 49.2842C32.3426 49.2122 32.1519 49.1768 31.96 49.18Z" fill="#EE0000"/>
</g>
<defs>
<clipPath id="clip0_70_1552">
<rect width="63.92" height="64" fill="white"/>
</clipPath>
</defs>
</svg>
