<svg width="230" height="71" viewBox="0 0 230 71" fill="none" xmlns="http://www.w3.org/2000/svg">
<g id="Logo-Red_Hat-Ansible_Automation_Platform-A-Standard-RGB_0 1" clip-path="url(#clip0_196_968)">
<path id="Vector" d="M50.3069 29.8481H52.8649L58.815 44.4081H56.443L54.759 40.1441H48.2468L46.5408 44.4081H44.2748L50.3069 29.8481ZM54.0509 38.3341L51.5129 31.9481L48.9749 38.3341H54.0509Z" fill="black"/>
<path id="Vector_2" d="M60.061 33.8202H62.1411V34.8802C62.5588 34.4649 63.0562 34.1384 63.6034 33.9205C64.1506 33.7026 64.7363 33.5977 65.3251 33.6122C67.7592 33.6122 69.4632 35.2962 69.4632 37.7522V44.4082H67.3832V38.1002C67.3832 36.4362 66.3652 35.4162 64.7631 35.4162C64.2448 35.3987 63.7307 35.5159 63.2712 35.7564C62.8116 35.9968 62.4223 36.3523 62.1411 36.7882V44.4022H60.061V33.8202Z" fill="black"/>
<path id="Vector_3" d="M71.9793 41.662C73.0833 42.536 74.2473 42.994 75.4333 42.994C76.9313 42.994 77.9714 42.348 77.9714 41.412C77.9714 40.664 77.4294 40.226 76.2653 40.06L74.3513 39.79C72.2513 39.478 71.1892 38.5 71.1892 36.858C71.1892 34.944 72.8533 33.658 75.3293 33.658C76.8599 33.6455 78.3552 34.1173 79.6014 35.006L78.5414 36.378C77.3754 35.608 76.3153 35.276 75.1913 35.276C73.9233 35.276 73.0693 35.858 73.0693 36.712C73.0693 37.482 73.5693 37.856 74.8173 38.042L76.7313 38.314C78.8314 38.626 79.9314 39.624 79.9314 41.266C79.9314 43.16 78.0174 44.594 75.5013 44.594C73.6713 44.594 72.0273 44.054 70.8632 43.034L71.9793 41.662Z" fill="black"/>
<path id="Vector_4" d="M81.2994 30.8242C81.2978 30.6563 81.3294 30.4897 81.3923 30.334C81.4552 30.1783 81.5483 30.0366 81.6661 29.917C81.7839 29.7973 81.9241 29.7021 82.0788 29.6367C82.2335 29.5714 82.3995 29.5372 82.5674 29.5362C82.741 29.5293 82.9141 29.5576 83.0765 29.6193C83.2388 29.681 83.3871 29.7748 83.5123 29.8952C83.6375 30.0156 83.7371 30.16 83.8051 30.3198C83.8732 30.4796 83.9082 30.6515 83.9082 30.8252C83.9082 30.9988 83.8732 31.1707 83.8051 31.3305C83.7371 31.4903 83.6375 31.6347 83.5123 31.7551C83.3871 31.8755 83.2388 31.9693 83.0765 32.031C82.9141 32.0927 82.741 32.121 82.5674 32.1142C82.3994 32.1129 82.2333 32.0784 82.0786 32.0129C81.924 31.9473 81.7837 31.8519 81.6659 31.7321C81.5482 31.6123 81.4552 31.4704 81.3923 31.3146C81.3294 31.1588 81.2978 30.9922 81.2994 30.8242ZM83.6015 44.4082H81.5214V33.8202H83.6015V44.4082Z" fill="black"/>
<path id="Vector_5" d="M91.3236 44.5741C90.1698 44.5792 89.0461 44.207 88.1235 43.5141V44.4081H86.0615V29.8481L88.1415 29.3901V34.8181C89.0416 34.0556 90.186 33.6424 91.3656 33.6541C94.3656 33.6541 96.7117 36.0541 96.7117 39.1041C96.7117 42.1541 94.3616 44.5741 91.3236 44.5741ZM88.1415 36.7321V41.5161C88.8075 42.2861 89.9096 42.7641 91.0956 42.7641C93.1336 42.7641 94.6736 41.2041 94.6736 39.1241C94.6736 37.0441 93.1136 35.4641 91.0956 35.4641C89.8896 35.4641 88.8275 35.9201 88.1415 36.7321Z" fill="black"/>
<path id="Vector_6" d="M100.768 44.4081H98.6877V29.8481L100.768 29.3901V44.4081Z" fill="black"/>
<path id="Vector_7" d="M108.298 44.5938C105.176 44.5938 102.744 42.1938 102.744 39.1038C102.744 36.0458 105.074 33.6538 108.048 33.6538C110.96 33.6538 113.164 36.0658 113.164 39.1858V39.7858H104.802C104.931 40.6386 105.365 41.4157 106.022 41.9737C106.68 42.5318 107.517 42.833 108.38 42.8218C109.356 42.8427 110.307 42.5159 111.064 41.8998L112.394 43.2118C111.234 44.1402 109.783 44.6296 108.298 44.5938ZM104.824 38.2298H111.106C110.794 36.6078 109.546 35.3998 108.006 35.3998C106.402 35.3998 105.136 36.5458 104.824 38.2298Z" fill="black"/>
<path id="Vector_8" d="M124.312 29.8481H126.872L132.82 44.4081H130.45L128.764 40.1441H122.254L120.548 44.4081H118.28L124.312 29.8481ZM128.058 38.3341L125.52 31.9481L122.982 38.3341H128.058Z" fill="black"/>
<path id="Vector_9" d="M135.69 40.1002C135.69 41.7642 136.71 42.8042 138.312 42.8042C138.83 42.8172 139.342 42.695 139.798 42.4494C140.254 42.2039 140.638 41.8436 140.912 41.4042V33.8042H143.002V44.3922H140.922V43.3302C140.506 43.7475 140.009 44.0753 139.461 44.2937C138.914 44.5121 138.328 44.6164 137.738 44.6002C135.306 44.6002 133.62 42.8942 133.62 40.4402V33.8202H135.7L135.69 40.1002Z" fill="black"/>
<path id="Vector_10" d="M146.819 35.5682H144.573V33.8202H146.819V31.1162L148.879 30.6162V33.8162H152.003V35.5642H148.883V41.3002C148.883 42.3822 149.319 42.7782 150.443 42.7782C150.96 42.7912 151.475 42.7063 151.961 42.5282V44.2742C151.321 44.4741 150.655 44.5793 149.985 44.5862C147.925 44.5862 146.823 43.6102 146.823 41.7862L146.819 35.5682Z" fill="black"/>
<path id="Vector_11" d="M158.343 33.6119C159.431 33.6139 160.494 33.9386 161.398 34.545C162.302 35.1514 163.006 36.0122 163.42 37.0185C163.835 38.0249 163.941 39.1316 163.727 40.1986C163.512 41.2656 162.986 42.245 162.215 43.0129C161.444 43.7808 160.462 44.3027 159.394 44.5126C158.326 44.7225 157.22 44.611 156.215 44.1921C155.211 43.7732 154.353 43.0658 153.75 42.1594C153.148 41.253 152.828 40.1883 152.831 39.0999C152.823 38.3751 152.961 37.6563 153.236 36.9856C153.511 36.3149 153.917 35.7059 154.43 35.1945C154.944 34.6832 155.555 34.2797 156.227 34.0079C156.899 33.7361 157.618 33.6015 158.343 33.6119ZM161.803 39.0999C161.803 37.0399 160.265 35.4379 158.351 35.4379C156.437 35.4379 154.877 37.0379 154.877 39.0999C154.877 41.1619 156.395 42.7819 158.351 42.7819C160.257 42.7859 161.803 41.1619 161.803 39.0999Z" fill="black"/>
<path id="Vector_12" d="M165.803 33.8201H167.883V34.8201C168.272 34.4289 168.736 34.1207 169.248 33.9144C169.759 33.7082 170.307 33.608 170.859 33.6201C172.293 33.6201 173.459 34.2861 174.123 35.3881C174.529 34.8228 175.067 34.3658 175.691 34.0575C176.315 33.7492 177.005 33.599 177.701 33.6201C180.031 33.6201 181.675 35.3041 181.675 37.7601V44.4161H179.603V38.1001C179.603 36.4361 178.667 35.4161 177.169 35.4161C176.129 35.4161 175.297 35.8941 174.693 36.8301C174.754 37.1316 174.782 37.4387 174.777 37.7461V44.4021H172.717V38.1001C172.717 36.4361 171.781 35.4161 170.283 35.4161C169.806 35.4065 169.334 35.5202 168.914 35.7461C168.493 35.9721 168.138 36.3028 167.883 36.7061V44.4021H165.803V33.8201Z" fill="black"/>
<path id="Vector_13" d="M183.531 41.3698C183.531 39.3698 185.153 38.1458 187.815 38.1458C188.809 38.1456 189.792 38.3442 190.707 38.7298V37.6058C190.707 36.1078 189.813 35.3598 188.127 35.3598C187.151 35.3598 186.151 35.6298 184.841 36.2538L184.071 34.6938C185.653 33.9438 187.025 33.6118 188.419 33.6118C191.165 33.6118 192.745 34.9638 192.745 37.3978V44.3978H190.707V43.4998C189.778 44.2461 188.613 44.6368 187.421 44.6018C185.111 44.5938 183.531 43.2838 183.531 41.3698ZM187.899 43.0558C188.925 43.0869 189.925 42.7298 190.699 42.0558V40.2238C189.862 39.7782 188.924 39.5563 187.975 39.5798C186.455 39.5798 185.519 40.2658 185.519 41.3278C185.527 42.3478 186.485 43.0558 187.899 43.0558Z" fill="black"/>
<path id="Vector_14" d="M196.095 35.5682H193.847V33.8202H196.095V31.1162L198.153 30.6162V33.8162H201.274V35.5642H198.153V41.3002C198.153 42.3822 198.591 42.7782 199.714 42.7782C200.231 42.7913 200.747 42.7065 201.234 42.5282V44.2742C200.594 44.4741 199.928 44.5793 199.258 44.5862C197.197 44.5862 196.095 43.6102 196.095 41.7862V35.5682Z" fill="black"/>
<path id="Vector_15" d="M202.584 30.8242C202.582 30.6562 202.614 30.4895 202.677 30.3339C202.74 30.1782 202.834 30.0365 202.951 29.9168C203.069 29.7972 203.21 29.702 203.365 29.6367C203.519 29.5714 203.686 29.5372 203.854 29.5362C204.027 29.5293 204.2 29.5576 204.363 29.6193C204.525 29.681 204.673 29.7748 204.798 29.8952C204.924 30.0156 205.023 30.16 205.091 30.3198C205.159 30.4796 205.194 30.6515 205.194 30.8252C205.194 30.9988 205.159 31.1707 205.091 31.3305C205.023 31.4903 204.924 31.6347 204.798 31.7551C204.673 31.8755 204.525 31.9693 204.363 32.031C204.2 32.0927 204.027 32.121 203.854 32.1142C203.685 32.1131 203.519 32.0789 203.364 32.0134C203.209 31.948 203.069 31.8526 202.951 31.7328C202.833 31.6129 202.74 31.471 202.677 31.3151C202.614 31.1591 202.582 30.9923 202.584 30.8242ZM204.894 44.4082H202.814V33.8202H204.894V44.4082Z" fill="black"/>
<path id="Vector_16" d="M212.382 33.6119C213.47 33.6139 214.533 33.9386 215.437 34.545C216.341 35.1514 217.045 36.0122 217.459 37.0185C217.874 38.0249 217.98 39.1316 217.766 40.1986C217.551 41.2656 217.025 42.245 216.254 43.0129C215.482 43.7808 214.501 44.3027 213.433 44.5126C212.365 44.7225 211.259 44.611 210.254 44.1921C209.25 43.7732 208.392 43.0658 207.789 42.1594C207.187 41.253 206.867 40.1883 206.87 39.0999C206.862 38.3751 207 37.6563 207.275 36.9856C207.55 36.3149 207.956 35.7059 208.469 35.1945C208.983 34.6832 209.594 34.2797 210.266 34.0079C210.937 33.7361 211.657 33.6015 212.382 33.6119ZM215.834 39.0999C215.834 37.0399 214.296 35.4379 212.382 35.4379C210.468 35.4379 208.908 37.0379 208.908 39.0999C208.908 41.1619 210.426 42.7819 212.382 42.7819C214.296 42.7859 215.834 41.1619 215.834 39.0999Z" fill="black"/>
<path id="Vector_17" d="M219.848 33.8202H221.928V34.8802C222.345 34.4647 222.843 34.1382 223.39 33.9202C223.937 33.7023 224.523 33.5975 225.112 33.6122C227.544 33.6122 229.25 35.2962 229.25 37.7522V44.4082H227.17V38.1002C227.17 36.4362 226.152 35.4162 224.55 35.4162C224.032 35.3987 223.517 35.5159 223.058 35.7564C222.598 35.9969 222.209 36.3524 221.928 36.7882V44.4022H219.848V33.8202Z" fill="black"/>
<path id="Vector_18" d="M45.7308 51.4482H52.4709C55.319 51.4482 57.233 53.2162 57.233 55.8162C57.233 58.3742 55.299 60.1422 52.4709 60.1422H47.9148V66.0082H45.7308V51.4482ZM47.9148 53.3602V58.3002H52.2409C53.9469 58.3002 55.029 57.3442 55.029 55.8262C55.029 54.3082 53.9469 53.3702 52.2409 53.3702L47.9148 53.3602Z" fill="black"/>
<path id="Vector_19" d="M61.3091 66.0082H59.229V51.4482L61.3091 50.9902V66.0082Z" fill="black"/>
<path id="Vector_20" d="M63.2231 62.9699C63.2231 60.9699 64.8451 59.7459 67.5092 59.7459C68.5025 59.7457 69.4858 59.9442 70.4012 60.3299V59.2059C70.4012 57.7079 69.5072 56.9599 67.8232 56.9599C66.8452 56.9599 65.8451 57.2299 64.5351 57.8539L63.7651 56.2939C65.3471 55.5439 66.7192 55.2119 68.1132 55.2119C70.8592 55.2119 72.4393 56.5639 72.4393 58.9979V66.0079H70.4012V65.0999C69.4717 65.8462 68.3067 66.2369 67.1152 66.2019C64.8011 66.1939 63.2231 64.8839 63.2231 62.9699ZM67.6012 64.6559C68.6271 64.687 69.6271 64.3299 70.4012 63.6559V61.8239C69.5639 61.378 68.6255 61.1562 67.6772 61.1799C66.1591 61.1799 65.2231 61.8659 65.2231 62.9279C65.2211 63.9479 66.1771 64.6559 67.6012 64.6559Z" fill="black"/>
<path id="Vector_21" d="M75.7873 57.1678H73.5413V55.4198H75.7873V52.7158L77.8454 52.2158V55.4158H80.9674V57.1638H77.8454V62.8998C77.8454 63.9818 78.2834 64.3778 79.4074 64.3778C79.9246 64.3908 80.4396 64.306 80.9254 64.1278V65.8738C80.2855 66.0738 79.6198 66.1789 78.9494 66.1858C76.8893 66.1858 75.7873 65.2098 75.7873 63.3858V57.1678Z" fill="black"/>
<path id="Vector_22" d="M84.2935 55.42V53.82C84.2935 51.62 85.5635 50.42 87.8935 50.42C88.399 50.4127 88.9032 50.4753 89.3916 50.606V52.406C88.9678 52.2736 88.5254 52.2101 88.0815 52.218C86.9375 52.218 86.3755 52.738 86.3755 53.862V55.422H89.3916V57.17H86.3735V66.01H84.2935V57.17H81.8394V55.42H84.2935Z" fill="black"/>
<path id="Vector_23" d="M95.5677 55.212C96.656 55.214 97.7194 55.5387 98.6232 56.1451C99.527 56.7515 100.231 57.6123 100.645 58.6186C101.06 59.625 101.166 60.7317 100.952 61.7987C100.737 62.8657 100.211 63.8451 99.4397 64.613C98.6684 65.3809 97.6867 65.9028 96.6188 66.1127C95.5508 66.3226 94.4446 66.211 93.4401 65.7922C92.4355 65.3733 91.5778 64.6659 90.9753 63.7595C90.3729 62.8531 90.0528 61.7883 90.0556 60.7C90.0483 59.9752 90.1861 59.2564 90.4608 58.5857C90.7355 57.915 91.1417 57.306 91.6553 56.7946C92.1689 56.2833 92.7797 55.8798 93.4516 55.608C94.1235 55.3362 94.8429 55.2015 95.5677 55.212ZM99.0217 60.7C99.0217 58.64 97.4817 57.038 95.5677 57.038C93.6536 57.038 92.0936 58.638 92.0936 60.7C92.0936 62.762 93.6116 64.382 95.5677 64.382C97.4817 64.386 99.0217 62.762 99.0217 60.7Z" fill="black"/>
<path id="Vector_24" d="M103.036 55.4198H105.116V56.7718C105.42 56.2758 105.849 55.8687 106.36 55.5913C106.871 55.3139 107.446 55.1761 108.028 55.1918C108.389 55.1736 108.75 55.2301 109.088 55.3578V57.2298C108.695 57.0814 108.28 57.0036 107.86 56.9998C106.634 56.9998 105.66 57.6658 105.116 58.9358V66.0078H103.036V55.4198Z" fill="black"/>
<path id="Vector_25" d="M110.752 55.4198H112.832V56.4198C113.22 56.0284 113.684 55.7202 114.196 55.5139C114.707 55.3076 115.255 55.2075 115.806 55.2198C117.242 55.2198 118.406 55.8858 119.072 56.9878C119.478 56.4222 120.016 55.9651 120.64 55.6567C121.264 55.3484 121.954 55.1983 122.65 55.2198C124.98 55.2198 126.622 56.9038 126.622 59.3598V66.0158H124.542V59.6998C124.542 58.0358 123.606 57.0158 122.11 57.0158C121.068 57.0158 120.236 57.4938 119.634 58.4298C119.693 58.7315 119.72 59.0384 119.716 59.3458V66.0018H117.658V59.6998C117.658 58.0358 116.722 57.0158 115.224 57.0158C114.747 57.006 114.275 57.1196 113.855 57.3456C113.434 57.5716 113.079 57.9023 112.824 58.3058V66.0018H110.744L110.752 55.4198Z" fill="black"/>
<path id="Vector_26" d="M25.8005 17.4999C28.3025 17.4999 31.9226 16.9839 31.9226 14.0079C31.93 13.7782 31.9092 13.5485 31.8606 13.3239L30.3705 6.8519C30.0265 5.4279 29.7245 4.7819 27.2245 3.5319C25.2784 2.5379 21.0524 0.899902 19.8003 0.899902C18.6363 0.899902 18.2903 2.4079 16.9103 2.4079C15.5743 2.4079 14.5823 1.2879 13.3322 1.2879C12.1322 1.2879 11.3502 2.1059 10.7462 3.7879C10.7462 3.7879 9.06416 8.5319 8.84815 9.2199C8.81247 9.34603 8.79628 9.47688 8.80015 9.6079C8.80015 11.4519 16.0663 17.4999 25.8005 17.4999ZM32.3106 15.2159C32.6566 16.8539 32.6566 17.0259 32.6566 17.2419C32.6566 20.0419 29.5085 21.5959 25.3704 21.5959C16.0003 21.5939 7.81614 16.1199 7.81614 12.4999C7.8156 11.9957 7.91838 11.4968 8.11814 11.0339C4.75408 11.2039 0.400005 11.8079 0.400005 15.6439C0.400005 21.9399 15.3183 29.6999 27.1305 29.6999C36.1866 29.6999 38.4707 25.6039 38.4707 22.3699C38.4707 19.8259 36.2706 16.9379 32.3046 15.2139" fill="#EE0000"/>
<path id="Vector_27" d="M32.3046 15.2142C32.6506 16.8522 32.6506 17.0242 32.6506 17.2402C32.6506 20.0402 29.5025 21.5942 25.3644 21.5942C16.0003 21.5942 7.81614 16.1202 7.81614 12.5002C7.81559 11.996 7.91838 11.4971 8.11814 11.0342L8.85015 9.22217C8.814 9.34755 8.79714 9.47771 8.80015 9.60817C8.80015 11.4522 16.0663 17.5002 25.8004 17.5002C28.3025 17.5002 31.9226 16.9842 31.9226 14.0082C31.93 13.7785 31.9092 13.5488 31.8606 13.3242L32.3046 15.2142Z" fill="black"/>
<path id="Vector_28" d="M116.25 19.3601C116.25 21.7381 117.68 22.8941 120.288 22.8941C121.091 22.8741 121.889 22.7613 122.666 22.5581V19.8021C122.169 19.9595 121.651 20.0378 121.13 20.0341C120.056 20.0341 119.658 19.6981 119.658 18.6881V14.4601H122.77V11.6201H119.658V8.02009L116.258 8.75609V11.6201H114.002V14.4601H116.252L116.25 19.3601ZM105.65 19.4241C105.65 18.6881 106.388 18.3301 107.502 18.3301C108.183 18.334 108.861 18.4186 109.522 18.5821V20.0121C108.872 20.3669 108.142 20.5481 107.402 20.5381C106.31 20.5381 105.656 20.1181 105.656 19.4241M106.696 22.9361C107.896 22.9361 108.864 22.6841 109.768 22.0741V22.7481H113.132V15.6161C113.132 12.9041 111.304 11.4161 108.254 11.4161C106.55 11.4161 104.866 11.8161 103.054 12.6361L104.274 15.1401C105.578 14.5921 106.674 14.2561 107.64 14.2561C109.04 14.2561 109.764 14.8021 109.764 15.9181V16.4641C108.94 16.2507 108.091 16.1445 107.24 16.1481C104.378 16.1481 102.654 17.3481 102.654 19.4941C102.654 21.4501 104.21 22.9421 106.692 22.9421M88.2035 22.7541H91.8216V16.9841H97.8797V22.7481H101.498V8.02409H97.8877V13.6821H91.8296V8.02409H88.2115L88.2035 22.7541ZM74.4253 17.1741C74.4253 15.5741 75.6873 14.3541 77.3493 14.3541C78.2154 14.3355 79.0566 14.644 79.7054 15.2181V19.1001C79.3905 19.3956 79.0201 19.6259 78.6157 19.7776C78.2114 19.9294 77.781 19.9995 77.3493 19.9841C75.7093 19.9841 74.4253 18.7641 74.4253 17.1661M79.7474 22.7401H83.1134V7.28809L79.7134 8.02409V12.2101C78.8479 11.7194 77.8683 11.4655 76.8733 11.4741C73.6353 11.4741 71.0892 13.9761 71.0892 17.1741C71.0791 17.9243 71.2186 18.669 71.4994 19.3647C71.7802 20.0604 72.1967 20.6933 72.7247 21.2263C73.2527 21.7593 73.8816 22.1819 74.5747 22.4692C75.2677 22.7566 76.0111 22.9031 76.7613 22.9001C77.8343 22.9052 78.8807 22.5667 79.7474 21.9341V22.7401ZM64.3091 14.2001C65.3811 14.2001 66.2852 14.8941 66.6432 15.9661H62.0011C62.3371 14.8521 63.1791 14.2001 64.3151 14.2001M58.567 17.1941C58.567 20.4341 61.2171 22.9581 64.6231 22.9581C66.4952 22.9581 67.8632 22.4521 69.2732 21.2741L67.0212 19.2741C66.4952 19.8221 65.7171 20.1161 64.7931 20.1161C64.2121 20.1325 63.6397 19.9725 63.1513 19.6573C62.6629 19.342 62.2814 18.8863 62.0571 18.3501H69.9872V17.5101C69.9872 13.9761 67.6112 11.4321 64.3711 11.4321C63.6095 11.4206 62.8532 11.5615 62.1468 11.8465C61.4404 12.1315 60.7981 12.5549 60.2577 13.0918C59.7173 13.6286 59.2897 14.2681 59.0001 14.9726C58.7104 15.6771 58.5645 16.4324 58.571 17.1941M52.6989 11.1161C53.8989 11.1161 54.571 11.8721 54.571 12.7781C54.571 13.6841 53.8969 14.4401 52.6989 14.4401H49.1229V11.1161H52.6989ZM45.4988 22.7481H49.1169V17.3841H51.8709L54.649 22.7481H58.687L55.447 16.8581C56.2704 16.5232 56.9748 15.9496 57.4695 15.2111C57.9642 14.4726 58.2266 13.603 58.223 12.7141C58.223 10.0641 56.141 8.02409 53.0229 8.02409H45.5048L45.4988 22.7481Z" fill="black"/>
</g>
<defs>
<clipPath id="clip0_196_968">
<rect width="230" height="70" fill="white" transform="translate(0 0.5)"/>
</clipPath>
</defs>
</svg>
