<svg width="135" height="33" viewBox="0 0 135 33" fill="none" xmlns="http://www.w3.org/2000/svg">
<g id="Logo" clip-path="url(#clip0_11_1865)">
<path id="Vector" d="M28.0725 18.9203C30.8276 18.9203 34.8137 18.3521 34.8137 15.0751C34.8219 14.8222 34.799 14.5692 34.7454 14.3219L33.1047 7.19535C32.7259 5.62732 32.3934 4.91599 29.6405 3.53956C27.5043 2.44723 22.8509 0.643555 21.4745 0.643555C20.1927 0.643555 19.8205 2.29527 18.2922 2.29527C16.821 2.29527 15.7287 1.06199 14.3523 1.06199C13.0309 1.06199 12.1698 1.96272 11.5047 3.81484C11.5047 3.81484 9.6526 9.03866 9.41476 9.79625C9.37695 9.93536 9.36061 10.0794 9.36631 10.2235C9.36631 12.254 17.3606 18.9115 28.0725 18.9115M35.2365 16.4053C35.6175 18.209 35.6175 18.3984 35.6175 18.6362C35.6175 21.7194 32.1511 23.4306 27.5946 23.4306C17.2967 23.4372 8.27618 17.4029 8.27618 13.4146C8.27558 12.8594 8.38876 12.31 8.60872 11.8003C4.90448 11.9853 0.110107 12.646 0.110107 16.8788C0.110107 23.8116 16.5369 32.3564 29.5436 32.3564C39.5156 32.3564 42.0306 27.8462 42.0306 24.2851C42.0306 21.4838 39.6081 18.3037 35.2409 16.4053" fill="#EE0000"/>
<path id="Vector_2" d="M35.2365 16.4053C35.6175 18.209 35.6175 18.3984 35.6175 18.6362C35.6175 21.7194 32.1511 23.4306 27.5946 23.4306C17.2967 23.4372 8.27613 17.4029 8.27613 13.4146C8.27553 12.8594 8.38871 12.31 8.60867 11.8003L9.41471 9.80505C9.37779 9.94134 9.36145 10.0824 9.36626 10.2235C9.36626 12.254 17.3605 18.9115 28.0725 18.9115C30.8275 18.9115 34.8136 18.3433 34.8136 15.0663C34.8219 14.8134 34.799 14.5604 34.7454 14.3131L35.2365 16.4053Z" fill="black"/>
<path id="Vector_3" d="M127.675 20.9707C127.675 23.5892 129.25 24.8621 132.122 24.8621C133.006 24.8401 133.885 24.7159 134.74 24.4921V21.4552C134.193 21.6285 133.623 21.7147 133.049 21.7106C131.866 21.7106 131.428 21.3406 131.428 20.2285V15.5751H134.855V12.4478H131.428V8.48371L127.684 9.29415V12.4478H125.198V15.5751H127.675V20.9707ZM116.003 21.0411C116.003 20.2307 116.816 19.8365 118.043 19.8365C118.792 19.8408 119.539 19.934 120.267 20.114V21.6886C119.55 22.0804 118.743 22.2799 117.926 22.2678C116.723 22.2678 116.003 21.8053 116.003 21.0411ZM117.148 24.9083C118.47 24.9083 119.536 24.6309 120.531 23.9592V24.7013H124.235V16.848C124.235 13.8617 122.222 12.2232 118.864 12.2232C116.988 12.2232 115.133 12.6636 113.138 13.5666L114.481 16.3238C115.917 15.7204 117.124 15.3504 118.188 15.3504C119.729 15.3504 120.527 15.9517 120.527 17.1805V17.7818C119.619 17.5468 118.685 17.4299 117.747 17.4338C114.596 17.4338 112.698 18.7552 112.698 21.1182C112.698 23.272 114.411 24.9149 117.144 24.9149M96.7861 24.7079H100.77V18.3543H107.441V24.7013H111.436V8.48811H107.456V14.7184H100.785V8.48811H96.8015L96.7861 24.7079ZM81.6212 18.5636C81.6212 16.8017 83.0108 15.4583 84.8409 15.4583C85.793 15.439 86.7176 15.7787 87.4308 16.4097V20.6932C87.0852 21.0197 86.6785 21.2745 86.234 21.4431C85.7895 21.6117 85.316 21.6906 84.8409 21.6754C83.035 21.6754 81.6212 20.332 81.6212 18.5724M87.4814 24.7101H91.1879V7.67767L87.444 8.48811V13.0975C86.4909 12.5572 85.4123 12.2776 84.3167 12.2871C80.7513 12.2871 77.9477 15.0421 77.9477 18.5636C77.9375 19.3898 78.092 20.2099 78.4021 20.9758C78.7122 21.7417 79.1718 22.4382 79.7541 23.0245C80.3363 23.6108 81.0295 24.0753 81.7933 24.3908C82.557 24.7063 83.3759 24.8665 84.2022 24.8621C85.3837 24.8677 86.5359 24.495 87.4902 23.7984L87.4814 24.7101ZM70.4732 15.2888C71.6536 15.2888 72.6491 16.053 73.0433 17.2334H67.934C68.3039 16.0155 69.2311 15.2888 70.4732 15.2888ZM64.1592 18.5922C64.1592 22.1599 67.0773 24.9392 70.8278 24.9392C72.8891 24.9392 74.3955 24.382 75.9481 23.0849L73.4683 20.8826C72.8891 21.486 72.0324 21.8097 71.015 21.8097C70.3751 21.8277 69.7449 21.6516 69.2071 21.3045C68.6693 20.9574 68.2493 20.4556 68.0022 19.8651H76.7343V18.9335C76.7343 15.0421 74.118 12.2408 70.5503 12.2408C69.7116 12.2282 68.8789 12.3833 68.101 12.6972C67.3232 13.011 66.616 13.4772 66.0209 14.0684C65.4259 14.6595 64.955 15.3636 64.6361 16.1394C64.3171 16.9152 64.1565 17.7469 64.1637 18.5856M57.7 11.8928C59.0213 11.8928 59.7613 12.7253 59.7613 13.7229C59.7613 14.7206 59.0213 15.553 57.7 15.553H53.7601V11.8928H57.7ZM49.7717 24.7013H53.7557V18.7948H56.7882L59.8472 24.7013H64.3068L60.7391 18.2156C61.6458 17.8469 62.4214 17.2153 62.9661 16.4021C63.5109 15.5889 63.7999 14.6313 63.7959 13.6525C63.7959 10.7344 61.5033 8.48811 58.0699 8.48811H49.7717V24.7013Z" fill="white"/>
</g>
<defs>
<clipPath id="clip0_11_1865">
<rect width="135" height="32" fill="white" transform="translate(0 0.5)"/>
</clipPath>
</defs>
</svg>
