<svg width="38" height="24" viewBox="0 0 38 24" fill="none" xmlns="http://www.w3.org/2000/svg">
<g id="openshift-page-AWS 1" clip-path="url(#clip0_11_1525)">
<g id="Clip path group">
<mask id="mask0_11_1525" style="mask-type:luminance" maskUnits="userSpaceOnUse" x="0" y="0" width="38" height="24">
<g id="clip-path">
<path id="Path 15842" d="M0 0.869V23.131H37.1V0.869H0Z" fill="white"/>
</g>
</mask>
<g mask="url(#mask0_11_1525)">
<g id="Logo-AWS-202009-Horizontal-RGB-Reverse">
<path id="Path 15839" d="M10.46 8.922C10.448 9.29378 10.4952 9.6651 10.6 10.022C10.7081 10.3278 10.8419 10.6239 11 10.907C11.0525 10.9917 11.0821 11.0885 11.086 11.188C11.0788 11.2638 11.0534 11.3368 11.012 11.4007C10.9706 11.4646 10.9143 11.5175 10.848 11.555L10.071 12.073C9.9754 12.1389 9.86306 12.1763 9.74703 12.181C9.67734 12.1785 9.6089 12.1618 9.54582 12.1321C9.48274 12.1024 9.42634 12.0601 9.38003 12.008C9.20817 11.8375 9.05895 11.6456 8.93603 11.437C8.81337 11.229 8.68737 10.988 8.55804 10.714C8.1233 11.2558 7.57056 11.6911 6.94198 11.9868C6.3134 12.2824 5.6256 12.4306 4.93104 12.42C4.48256 12.4438 4.03385 12.3778 3.61124 12.2258C3.18863 12.0738 2.80064 11.839 2.47004 11.535C2.16291 11.2231 1.92375 10.851 1.76764 10.442C1.61153 10.0331 1.54187 9.59621 1.56303 9.159C1.54596 8.67894 1.63807 8.20127 1.83243 7.76198C2.02678 7.3227 2.3183 6.93325 2.68503 6.623C3.54265 5.94636 4.61713 5.60479 5.70804 5.662C6.14518 5.66449 6.58161 5.69791 7.01404 5.762C7.46737 5.82867 7.9387 5.91833 8.42803 6.031V5.123C8.50146 4.41357 8.29196 3.70383 7.84504 3.148C7.27289 2.707 6.55385 2.5013 5.83504 2.573C5.38756 2.57501 4.94186 2.62938 4.50703 2.735C4.05464 2.843 3.61079 2.98405 3.17904 3.157C3.03884 3.22064 2.8945 3.27476 2.74703 3.319C2.68375 3.33682 2.61868 3.34756 2.55303 3.351C2.38036 3.351 2.29404 3.22167 2.29404 2.963V2.363C2.2824 2.21372 2.31252 2.06414 2.38103 1.931C2.47334 1.81797 2.59174 1.72909 2.72603 1.672C3.22373 1.43211 3.74482 1.24412 4.28104 1.111C4.90853 0.949701 5.55415 0.869713 6.20203 0.873001C7.36742 0.771198 8.5263 1.1302 9.43004 1.873C9.79794 2.2826 10.0789 2.76259 10.2559 3.28391C10.433 3.80524 10.5024 4.35707 10.46 4.906V8.923V8.922ZM5.45103 10.8C5.88525 10.7945 6.31563 10.7178 6.72504 10.573C7.1767 10.4184 7.57912 10.1464 7.89104 9.785C8.09058 9.55854 8.23471 9.28876 8.31203 8.997C8.39735 8.64724 8.43735 8.28796 8.43104 7.928V7.41C8.057 7.32132 7.67845 7.25289 7.29703 7.205C6.91402 7.15537 6.52825 7.12999 6.14204 7.129C5.49116 7.08064 4.84341 7.25714 4.30704 7.629C4.1039 7.80416 3.94404 8.02394 3.83995 8.27115C3.73586 8.51836 3.69038 8.78629 3.70704 9.054C3.6898 9.29113 3.72118 9.52928 3.79925 9.75386C3.87731 9.97843 4.00043 10.1847 4.16103 10.36C4.33755 10.5163 4.54339 10.636 4.76656 10.712C4.98974 10.7881 5.2258 10.819 5.46104 10.803L5.45103 10.8ZM15.36 12.139C15.1929 12.1524 15.0261 12.1106 14.885 12.02C14.7535 11.8865 14.6635 11.7177 14.626 11.534L11.73 1.991C11.6745 1.82917 11.6382 1.66134 11.622 1.491C11.6166 1.45032 11.6206 1.40894 11.6338 1.37006C11.6469 1.33119 11.6689 1.29587 11.6979 1.26685C11.7269 1.23783 11.7622 1.21589 11.8011 1.20274C11.84 1.18958 11.8814 1.18557 11.922 1.191H13.131C13.3018 1.17507 13.473 1.21698 13.617 1.31C13.742 1.4467 13.8277 1.61462 13.865 1.796L15.938 9.958L17.86 1.797C17.8854 1.61372 17.9688 1.44338 18.098 1.311C18.2475 1.21838 18.4229 1.17663 18.598 1.192H19.591C19.7662 1.17684 19.9415 1.21858 20.091 1.311C20.2199 1.44351 20.303 1.61384 20.328 1.797L22.271 10.067L24.408 1.797C24.4456 1.61567 24.5312 1.44779 24.656 1.311C24.8001 1.21791 24.9713 1.17599 25.142 1.192H26.287C26.3277 1.18657 26.3691 1.19058 26.408 1.20374C26.4468 1.21689 26.4822 1.23883 26.5112 1.26785C26.5402 1.29687 26.5621 1.33219 26.5753 1.37106C26.5884 1.40994 26.5925 1.45132 26.587 1.492C26.5863 1.55719 26.5792 1.62216 26.566 1.686C26.5428 1.78758 26.5138 1.88775 26.479 1.986L23.499 11.53C23.4616 11.7137 23.3716 11.8825 23.24 12.016C23.0988 12.1062 22.9321 12.148 22.765 12.135H21.705C21.5284 12.1516 21.3516 12.106 21.205 12.006C21.0774 11.867 20.9948 11.6927 20.968 11.506L19.049 3.567L17.149 11.513C17.1221 11.6999 17.0391 11.8743 16.911 12.013C16.7644 12.1127 16.5876 12.1583 16.411 12.142L15.36 12.139ZM31.208 12.463C30.5685 12.4639 29.931 12.3914 29.308 12.247C28.8123 12.1466 28.3328 11.9783 27.883 11.747C27.7455 11.6926 27.6281 11.597 27.547 11.4733C27.4659 11.3496 27.425 11.2038 27.43 11.056V10.433C27.43 10.1743 27.5237 10.045 27.711 10.045C27.7886 10.0461 27.8654 10.0606 27.938 10.088C28.0174 10.1173 28.122 10.1603 28.252 10.217C28.6881 10.4106 29.1442 10.5554 29.612 10.649C30.095 10.7492 30.5868 10.7998 31.08 10.8C31.7067 10.8359 32.3307 10.6937 32.88 10.39C33.0808 10.2701 33.2457 10.0986 33.3577 9.89339C33.4697 9.68817 33.5248 9.45668 33.517 9.223C33.5218 9.06391 33.4945 8.90548 33.437 8.75708C33.3795 8.60869 33.2928 8.47332 33.182 8.359C32.8214 8.05358 32.397 7.83254 31.94 7.712L30.148 7.151C29.3751 6.95019 28.6844 6.51237 28.173 5.899C27.775 5.3864 27.5586 4.75601 27.558 4.107C27.5483 3.62861 27.6638 3.15599 27.893 2.736C28.1151 2.34071 28.416 1.99524 28.777 1.721C29.1618 1.43149 29.5968 1.21554 30.06 1.084C30.5659 0.939514 31.0899 0.868455 31.616 0.873001C31.8936 0.873396 32.1708 0.891432 32.446 0.927C32.7267 0.963 32.9934 1.00967 33.246 1.067C33.4987 1.12433 33.732 1.189 33.946 1.261C34.1247 1.31757 34.2981 1.38986 34.464 1.477C34.6054 1.55117 34.7302 1.65323 34.831 1.777C34.9092 1.89895 34.947 2.04239 34.939 2.187V2.773C34.939 3.032 34.845 3.162 34.658 3.162C34.4915 3.14265 34.3302 3.09138 34.183 3.011C33.4341 2.68569 32.6245 2.52376 31.808 2.536C31.2413 2.50252 30.6757 2.61874 30.168 2.873C29.9785 2.98431 29.8235 3.14611 29.7206 3.34035C29.6176 3.5346 29.5707 3.75363 29.585 3.973C29.582 4.13636 29.613 4.29856 29.6762 4.44923C29.7394 4.5999 29.8333 4.73572 29.952 4.848C30.3525 5.16783 30.8159 5.39955 31.312 5.528L33.06 6.095C33.803 6.28741 34.4697 6.70185 34.971 7.283C35.35 7.7786 35.5515 8.38717 35.543 9.011C35.5509 9.50863 35.4398 10.001 35.219 10.447C35.0021 10.8716 34.6949 11.2436 34.319 11.537C33.9106 11.8531 33.4451 12.0877 32.948 12.228C32.3796 12.3911 31.7904 12.471 31.199 12.465L31.208 12.463Z" fill="white"/>
<path id="Path 15840" fill-rule="evenodd" clip-rule="evenodd" d="M33.5381 18.539C29.1069 21.5472 23.8709 23.1477 18.5151 23.131C11.7396 23.1658 5.19521 20.6694 0.164107 16.131C-0.215893 15.787 0.123107 15.319 0.580107 15.584C6.17136 18.7811 12.5014 20.4606 18.9421 20.456C23.7539 20.4329 28.5137 19.4593 32.9481 17.591C33.6341 17.298 34.2101 18.042 33.5381 18.539Z" fill="#F89628"/>
<path id="Path 15841" fill-rule="evenodd" clip-rule="evenodd" d="M35.229 16.609C34.709 15.944 31.795 16.295 30.485 16.452C30.085 16.5 30.027 16.152 30.385 15.902C32.71 14.269 36.52 14.74 36.963 15.287C37.406 15.834 36.8451 19.658 34.6631 21.481C34.3261 21.761 34.009 21.612 34.157 21.242C34.648 20.017 35.7451 17.276 35.2251 16.61L35.229 16.609Z" fill="#F89628"/>
</g>
</g>
</g>
</g>
<defs>
<clipPath id="clip0_11_1525">
<rect width="37.104" height="22.262" fill="white" transform="translate(0 0.869)"/>
</clipPath>
</defs>
</svg>
