<svg width="126" height="18" viewBox="0 0 126 18" fill="none" xmlns="http://www.w3.org/2000/svg">
<g id="Logo-Microsoft-Azure-words 1" clip-path="url(#clip0_11_1533)">
<g id="Microsoft Azure">
<path id="Path 16007" d="M93.296 3.7975L97.51 14.2095H95.372L94.381 11.6245H89.972L89.02 14.2095H86.896L91.108 3.7975H93.296ZM92.141 5.7285L90.486 10.1145H93.842L92.196 5.7245L92.141 5.7285Z" fill="white"/>
<path id="Path 16008" d="M98.079 6.4565H104.299V7.1915L100.216 12.7915H104.322V14.2455H97.792V13.3745L101.815 7.9125H98.08L98.079 6.4565Z" fill="white"/>
<g id="Group 2941">
<g id="Clip path group">
<mask id="mask0_11_1533" style="mask-type:luminance" maskUnits="userSpaceOnUse" x="0" y="0" width="126" height="18">
<g id="clip-path">
<path id="Rectangle 2798" d="M125.434 0.0644999H0.104004V17.9355H125.434V0.0644999Z" fill="white"/>
</g>
</mask>
<g mask="url(#mask0_11_1533)">
<g id="Group 2940">
<path id="Path 16009" d="M112.17 6.6745V14.3625H110.345V13.3525H110.315C110.072 13.7049 109.74 13.9873 109.354 14.1715C108.933 14.3744 108.471 14.4771 108.004 14.4715C107.63 14.4975 107.254 14.4432 106.903 14.3123C106.551 14.1814 106.232 13.9769 105.966 13.7125C105.446 13.0415 105.196 12.1997 105.266 11.3535V6.6745H107.102V11.1315C107.065 11.648 107.2 12.1623 107.487 12.5935C107.628 12.7613 107.807 12.8931 108.01 12.9783C108.212 13.0635 108.431 13.0995 108.65 13.0835C108.883 13.0924 109.116 13.0482 109.329 12.9544C109.543 12.8605 109.733 12.7193 109.884 12.5415C110.206 12.1415 110.371 11.6375 110.347 11.1245V6.6745H112.17Z" fill="white"/>
<path id="Path 16010" d="M117.618 6.5475C117.748 6.54642 117.878 6.55646 118.007 6.5775C118.106 6.59363 118.204 6.61873 118.299 6.6525V8.4845C118.171 8.39783 118.031 8.33044 117.884 8.2845C117.67 8.21759 117.446 8.18618 117.222 8.1915C117.004 8.19084 116.788 8.24122 116.593 8.33863C116.398 8.43603 116.228 8.57776 116.097 8.7525C115.752 9.25953 115.59 9.86897 115.637 10.4805V14.3615H113.827V6.6745H115.637V7.8865H115.667C115.813 7.49191 116.074 7.14974 116.415 6.9035C116.767 6.66163 117.187 6.53738 117.615 6.5485" fill="white"/>
<path id="Path 16011" d="M124.813 12.4215V13.9095C124.449 14.1251 124.053 14.2804 123.639 14.3695C123.132 14.4895 122.612 14.5486 122.091 14.5455C121.588 14.5751 121.084 14.4978 120.613 14.3185C120.142 14.1393 119.714 13.8622 119.358 13.5055C118.669 12.7045 118.319 11.6664 118.382 10.6115C118.341 9.53329 118.714 8.48028 119.425 7.6685C119.755 7.29566 120.163 6.99973 120.62 6.80156C121.077 6.60338 121.571 6.50779 122.069 6.5215C122.528 6.49515 122.988 6.56877 123.416 6.73728C123.844 6.90578 124.23 7.16516 124.548 7.4975C125.176 8.25229 125.492 9.21763 125.434 10.1975V11.0725H120.169C120.172 11.3795 120.24 11.6825 120.368 11.9615C120.496 12.2405 120.682 12.4893 120.913 12.6915C121.387 13.0152 121.952 13.1766 122.525 13.1515C122.947 13.1527 123.366 13.0852 123.766 12.9515C124.138 12.8299 124.491 12.6547 124.813 12.4315M123.654 9.7465C123.688 9.25505 123.54 8.76824 123.239 8.3785C123.091 8.21854 122.909 8.09336 122.707 8.01193C122.505 7.9305 122.287 7.89484 122.069 7.9075C121.635 7.90754 121.217 8.07475 120.902 8.3745C120.528 8.74371 120.286 9.22594 120.214 9.7465H123.654Z" fill="white"/>
<path id="Path 16012" d="M34.9401 3.6405V14.3615H33.0781V5.9565H33.0481L29.7201 14.3615H28.4891L25.0791 5.9565H25.0571V14.3615H23.3401V3.6405H26.0101L29.0911 11.5895H29.1361L32.3851 3.6405H34.9401ZM36.4971 4.4555C36.4941 4.31417 36.5216 4.17387 36.5777 4.04411C36.6338 3.91435 36.7171 3.79818 36.8221 3.7035C37.031 3.50625 37.3088 3.39858 37.5961 3.4035C37.7424 3.39886 37.8881 3.42394 38.0244 3.47722C38.1607 3.5305 38.2847 3.61088 38.3891 3.7135C38.4898 3.80921 38.5697 3.92469 38.6238 4.05272C38.6778 4.18074 38.7048 4.31855 38.7031 4.4575C38.7056 4.59672 38.6782 4.73486 38.6226 4.86254C38.5671 4.99022 38.4847 5.10445 38.3811 5.1975C38.1689 5.39652 37.887 5.50425 37.5961 5.4975C37.4526 5.50145 37.3097 5.47698 37.1756 5.42549C37.0416 5.37401 36.9191 5.29652 36.8151 5.1975C36.7131 5.10406 36.632 4.99008 36.5772 4.86305C36.5224 4.73602 36.4951 4.59883 36.4971 4.4605M38.4971 14.3685H36.6871V6.6745H38.4971V14.3685ZM43.9861 13.0525C44.2917 13.0451 44.5934 12.9817 44.8761 12.8655C45.1973 12.7433 45.5002 12.5774 45.7761 12.3725V14.0545C45.4683 14.2263 45.1372 14.3523 44.7931 14.4285C44.3965 14.5165 43.9913 14.5592 43.5851 14.5555C43.0778 14.5788 42.5713 14.4961 42.0977 14.3128C41.6241 14.1295 41.1939 13.8496 40.8344 13.4909C40.475 13.1322 40.1942 12.7026 40.0099 12.2294C39.8256 11.7562 39.7419 11.2498 39.7641 10.7425C39.7217 9.62306 40.1096 8.52989 40.8481 7.6875C41.2427 7.27661 41.7219 6.95646 42.2525 6.74925C42.7831 6.54204 43.3525 6.45273 43.9211 6.4875C44.2678 6.48856 44.6131 6.53256 44.9491 6.6185C45.2361 6.68279 45.5137 6.78361 45.7751 6.9185V8.6535C45.5121 8.45795 45.2242 8.29822 44.9191 8.1785C44.6343 8.06785 44.3316 8.01089 44.0261 8.0105C43.7051 7.99821 43.3851 8.05426 43.0874 8.17494C42.7897 8.29562 42.521 8.47816 42.2991 8.7105C41.8415 9.2253 41.6051 9.89965 41.6411 10.5875C41.6212 10.9171 41.6668 11.2474 41.7753 11.5592C41.8838 11.8711 42.053 12.1584 42.2731 12.4045C42.4984 12.6259 42.7673 12.7981 43.0627 12.9102C43.3581 13.0223 43.6736 13.0717 43.9891 13.0555M50.9281 6.5555C51.0584 6.55443 51.1885 6.56447 51.3171 6.5855C51.4165 6.60141 51.5143 6.62652 51.6091 6.6605V8.4925C51.4812 8.40599 51.3414 8.33861 51.1941 8.2925C50.98 8.22559 50.7564 8.19418 50.5321 8.1995C50.3138 8.19884 50.0984 8.24922 49.9031 8.34663C49.7078 8.44403 49.5379 8.58576 49.4071 8.7605C49.0617 9.26705 48.8994 9.87626 48.9471 10.4875V14.3685H47.1371V6.6745H48.9471V7.8855H48.9771C49.1233 7.49085 49.3837 7.14865 49.7251 6.9025C50.0777 6.66069 50.4977 6.53644 50.9251 6.5475M51.7031 10.6305C51.6739 10.0807 51.7541 9.53068 51.939 9.01212C52.1239 8.49356 52.4097 8.01683 52.7801 7.6095C53.1742 7.22671 53.6437 6.93002 54.1585 6.73825C54.6734 6.54648 55.2226 6.46381 55.7711 6.4955C56.2894 6.46596 56.8081 6.54628 57.2933 6.73119C57.7784 6.91611 58.2189 7.20144 58.5861 7.5685C59.2915 8.36464 59.6553 9.40631 59.5991 10.4685C59.6265 11.0113 59.5454 11.554 59.3605 12.065C59.1756 12.5761 58.8905 13.045 58.5221 13.4445C58.1366 13.8216 57.6771 14.1147 57.1726 14.3053C56.6681 14.4958 56.1296 14.5796 55.5911 14.5515C55.0715 14.5782 54.552 14.4988 54.0641 14.3183C53.5762 14.1378 53.1302 13.8599 52.7531 13.5015C52.3927 13.1196 52.1137 12.6684 51.9331 12.1754C51.7524 11.6824 51.6738 11.1578 51.7021 10.6335M53.5871 10.5735C53.5419 11.2325 53.7358 11.8858 54.1331 12.4135C54.3293 12.6298 54.5717 12.7992 54.8422 12.9091C55.1128 13.019 55.4046 13.0667 55.6961 13.0485C55.9782 13.0663 56.2607 13.0182 56.521 12.908C56.7813 12.7977 57.0125 12.6285 57.1961 12.4135C57.578 11.8624 57.7601 11.1973 57.7121 10.5285C57.7604 9.86059 57.5709 9.19712 57.1771 8.6555C56.9915 8.44311 56.76 8.2758 56.5001 8.16629C56.2402 8.05678 55.9587 8.00795 55.6771 8.0235C55.3862 8.0081 55.0957 8.0598 54.8279 8.17459C54.5602 8.28937 54.3225 8.46418 54.1331 8.6855C53.734 9.23085 53.5393 9.89914 53.5831 10.5735M62.2831 8.6965C62.277 8.81006 62.296 8.92357 62.3387 9.02898C62.3814 9.13439 62.4467 9.22913 62.5301 9.3065C62.865 9.54438 63.2329 9.73202 63.6221 9.8635C64.2023 10.058 64.7253 10.3933 65.1441 10.8395C65.4393 11.212 65.594 11.6764 65.5811 12.1515C65.5908 12.4873 65.5202 12.8205 65.3751 13.1235C65.23 13.4265 65.0147 13.6905 64.7471 13.8935C64.0922 14.363 63.2967 14.5951 62.4921 14.5515C62.1365 14.5476 61.7821 14.5088 61.4341 14.4355C61.0964 14.3717 60.7668 14.2711 60.4511 14.1355V12.3555C60.779 12.5843 61.1362 12.768 61.5131 12.9015C61.8432 13.0263 62.1922 13.0939 62.5451 13.1015C62.8548 13.1211 63.1644 13.0619 63.4451 12.9295C63.5425 12.8701 63.6214 12.7847 63.6729 12.683C63.7245 12.5813 63.7467 12.4672 63.7371 12.3535C63.7382 12.2323 63.7118 12.1125 63.6598 12.003C63.6079 11.8935 63.5317 11.7972 63.4371 11.7215C63.0851 11.4691 62.6984 11.269 62.2891 11.1275C61.7459 10.9337 61.2581 10.6104 60.8681 10.1855C60.5781 9.80397 60.4299 9.33337 60.4491 8.8545C60.4429 8.52479 60.5145 8.19826 60.658 7.90135C60.8015 7.60444 61.0129 7.3455 61.2751 7.1455C61.889 6.67913 62.6469 6.44244 63.4171 6.4765C63.7191 6.48019 64.0203 6.5103 64.3171 6.5665C64.6037 6.6133 64.8843 6.69109 65.1541 6.7985V8.5185C64.8927 8.34821 64.6117 8.21021 64.3171 8.1075C64.0128 7.99547 63.6913 7.93727 63.3671 7.9355C63.0863 7.91926 62.8072 7.98903 62.5671 8.1355C62.4758 8.19557 62.4014 8.27802 62.3509 8.37499C62.3005 8.47197 62.2758 8.58025 62.2791 8.6895M66.3541 10.6265C66.3249 10.0767 66.4051 9.52668 66.59 9.00812C66.7749 8.48956 67.0607 8.01283 67.4311 7.6055C67.8252 7.22271 68.2947 6.92602 68.8095 6.73425C69.3244 6.54248 69.8736 6.45982 70.4221 6.4915C70.9406 6.46188 71.4595 6.54216 71.9448 6.72708C72.43 6.91199 72.8708 7.19736 73.2381 7.5645C73.9435 8.36063 74.3073 9.40231 74.2511 10.4645C74.2785 11.0072 74.1974 11.55 74.0124 12.061C73.8275 12.572 73.5425 13.041 73.1741 13.4405C72.7885 13.8178 72.3289 14.1109 71.8242 14.3015C71.3195 14.492 70.7808 14.5758 70.2421 14.5475C69.7225 14.5742 69.203 14.4948 68.7151 14.3143C68.2272 14.1338 67.7812 13.8559 67.4041 13.4975C67.0437 13.1156 66.7648 12.6644 66.5841 12.1714C66.4034 11.6784 66.3248 11.1538 66.3531 10.6295M68.2371 10.5695C68.192 11.2285 68.3859 11.8817 68.7831 12.4095C68.9793 12.6258 69.2217 12.7952 69.4922 12.9051C69.7628 13.015 70.0546 13.0627 70.3461 13.0445C70.6282 13.0623 70.9107 13.0142 71.171 12.904C71.4313 12.7937 71.6625 12.6245 71.8461 12.4095C72.2281 11.8584 72.4101 11.1933 72.3621 10.5245C72.4104 9.85659 72.2209 9.19312 71.8271 8.6515C71.6415 8.43917 71.4099 8.2719 71.15 8.1624C70.8901 8.05289 70.6087 8.00402 70.3271 8.0195C70.0362 8.0041 69.7457 8.0558 69.4779 8.17059C69.2102 8.28537 68.9725 8.46018 68.7831 8.6815C68.384 9.22685 68.1893 9.89514 68.2331 10.5695M80.2491 8.1545H77.5491V14.3615H75.7401V8.1545H74.4541V6.6745H75.7401V5.6045C75.7273 5.23707 75.7908 4.87098 75.9266 4.52932C76.0624 4.18767 76.2675 3.87788 76.5291 3.6195C76.7969 3.36107 77.1141 3.15932 77.4617 3.02632C77.8093 2.89333 78.1802 2.83183 78.5521 2.8455C78.7469 2.84424 78.9417 2.8556 79.1351 2.8795C79.2877 2.89791 79.4381 2.93141 79.5841 2.9795V4.5405C79.4834 4.48881 79.3784 4.4463 79.2701 4.4135C79.1032 4.36109 78.929 4.33577 78.7541 4.3385C78.591 4.3285 78.4277 4.3552 78.2763 4.41663C78.1248 4.47807 77.9891 4.57268 77.8791 4.6935C77.654 4.99529 77.5451 5.36799 77.5721 5.7435V6.6705H80.2721V4.9465L82.0891 4.3935V6.6745H83.9211V8.1555H82.0891V11.7555C82.0554 12.1088 82.1467 12.4626 82.3471 12.7555C82.4531 12.8599 82.5806 12.94 82.7206 12.9904C82.8606 13.0408 83.0098 13.0603 83.1581 13.0475C83.2873 13.0429 83.4149 13.0175 83.5361 12.9725C83.6711 12.9284 83.8004 12.8683 83.9211 12.7935V14.2935C83.7398 14.3799 83.5472 14.4401 83.3491 14.4725C83.0895 14.5265 82.8252 14.554 82.5601 14.5545C82.2464 14.5785 81.9311 14.5363 81.6348 14.4305C81.3384 14.3247 81.0677 14.1578 80.8401 13.9405C80.4218 13.4241 80.2171 12.7671 80.2681 12.1045L80.2491 8.1545Z" fill="white"/>
<path id="Rectangle 2790" d="M8.598 0.0644999H0.104004V8.5585H8.598V0.0644999Z" fill="#F25022"/>
<path id="Rectangle 2791" d="M17.9759 0.0644999H9.48193V8.5585H17.9759V0.0644999Z" fill="#7FBA00"/>
<path id="Rectangle 2792" d="M8.598 9.4425H0.104004V17.9365H8.598V9.4425Z" fill="#00A4EF"/>
<path id="Rectangle 2793" d="M17.9759 9.4425H9.48193V17.9365H17.9759V9.4425Z" fill="#FFB900"/>
<path id="Rectangle 2794" d="M8.598 0.0644999H0.104004V8.5585H8.598V0.0644999Z" fill="#F25022"/>
<path id="Rectangle 2795" d="M17.9759 0.0644999H9.48193V8.5585H17.9759V0.0644999Z" fill="#7FBA00"/>
<path id="Rectangle 2796" d="M8.598 9.4425H0.104004V17.9365H8.598V9.4425Z" fill="#00A4EF"/>
<path id="Rectangle 2797" d="M17.9759 9.4425H9.48193V17.9365H17.9759V9.4425Z" fill="#FFB900"/>
</g>
</g>
</g>
</g>
</g>
</g>
<defs>
<clipPath id="clip0_11_1533">
<rect width="125.33" height="17.871" fill="white" transform="translate(0.104004 0.0644999)"/>
</clipPath>
</defs>
</svg>
