<svg width="92" height="16" viewBox="0 0 92 16" fill="none" xmlns="http://www.w3.org/2000/svg">
<g id="Logo-Google-Cloud-words 1" clip-path="url(#clip0_11_1554)">
<g id="Clip path group">
<mask id="mask0_11_1554" style="mask-type:luminance" maskUnits="userSpaceOnUse" x="0" y="0" width="92" height="16">
<g id="clip-path">
<path id="Rectangle 2780" d="M91.0271 0H0.434082V16H91.0271V0Z" fill="white"/>
</g>
</mask>
<g mask="url(#mask0_11_1554)">
<g id="Group 2935">
<path id="Path 15995" d="M59.4831 12.417C58.7269 12.4334 57.9753 12.2961 57.2738 12.0134C56.5723 11.7308 55.9355 11.3086 55.4019 10.7726C54.8683 10.2366 54.4491 9.59787 54.1696 8.89507C53.8902 8.19227 53.7563 7.44006 53.7761 6.684C53.7571 5.92935 53.8917 5.17872 54.1717 4.47769C54.4518 3.77666 54.8714 3.13988 55.4051 2.606C55.9324 2.06184 56.5675 1.63361 57.2696 1.34865C57.9718 1.06369 58.7257 0.928255 59.4831 0.951C60.245 0.927657 61.0025 1.07596 61.6994 1.38494C62.3963 1.69392 63.0148 2.15567 63.5091 2.736L62.4931 3.713C62.1363 3.25856 61.6785 2.89358 61.156 2.64708C60.6335 2.40058 60.0607 2.27934 59.4831 2.293C58.9181 2.27799 58.3561 2.37894 57.8317 2.58964C57.3073 2.80033 56.8316 3.11629 56.4341 3.518C56.0284 3.93356 55.7116 4.4275 55.5032 4.96962C55.2948 5.51174 55.1992 6.09066 55.2221 6.671C55.1992 7.25134 55.2948 7.83026 55.5032 8.37238C55.7116 8.9145 56.0284 9.40844 56.4341 9.824C56.8316 10.2257 57.3073 10.5417 57.8317 10.7524C58.3561 10.9631 58.9181 11.064 59.4831 11.049C60.1209 11.0459 60.75 10.9007 61.3247 10.6239C61.8993 10.3471 62.405 9.94577 62.8051 9.449L63.8341 10.439C63.3158 11.0622 62.6604 11.5571 61.9191 11.885C61.1586 12.2469 60.3252 12.4296 59.4831 12.419M66.1671 12.171H64.7601V1.212H66.1671V12.171ZM67.1831 8.419C67.1662 7.89369 67.2529 7.37019 67.4384 6.87843C67.6239 6.38666 67.9045 5.93627 68.2641 5.553C68.6217 5.18048 69.0534 4.88709 69.5314 4.69176C70.0093 4.49644 70.523 4.40352 71.0391 4.419C71.5513 4.40355 72.0611 4.49659 72.5348 4.69203C73.0086 4.88747 73.4357 5.18087 73.7881 5.553C74.1543 5.93287 74.441 6.38206 74.6312 6.87421C74.8215 7.36637 74.9115 7.89157 74.8961 8.419C74.9157 8.94692 74.8276 9.47332 74.6371 9.96607C74.4466 10.4588 74.1577 10.9076 73.7881 11.285C73.4349 11.6561 73.0077 11.9489 72.5341 12.1442C72.0606 12.3396 71.5512 12.4332 71.0391 12.419C70.5233 12.432 70.0104 12.338 69.5328 12.1428C69.0551 11.9476 68.6232 11.6555 68.2641 11.285C67.5396 10.5098 67.151 9.47957 67.1831 8.419ZM68.5901 8.419C68.5565 9.13717 68.8081 9.83951 69.2901 10.373C69.5114 10.615 69.7814 10.8074 70.0823 10.9377C70.3832 11.068 70.7082 11.1332 71.0361 11.129C71.3644 11.1362 71.6904 11.0723 71.9917 10.9418C72.2931 10.8114 72.5627 10.6173 72.7821 10.373C73.2621 9.83833 73.5134 9.13683 73.4821 8.419C73.5134 7.70507 73.2619 7.00761 72.7821 6.478C72.5603 6.23572 72.2906 6.04225 71.99 5.90989C71.6894 5.77753 71.3645 5.70918 71.0361 5.70918C70.7077 5.70918 70.3828 5.77753 70.0822 5.90989C69.7816 6.04225 69.5119 6.23572 69.2901 6.478C68.8103 7.00761 68.5588 7.70507 68.5901 8.419ZM82.4901 12.171H81.1481V11.127H81.0831C80.8462 11.5187 80.5029 11.835 80.0931 12.039C79.6695 12.2717 79.1953 12.397 78.7121 12.404C78.322 12.4294 77.9309 12.3716 77.5647 12.2346C77.1986 12.0975 76.8657 11.8843 76.5881 11.609C76.0587 10.9869 75.7922 10.1832 75.8451 9.368V4.651H77.2521V9.276C77.2223 9.52555 77.2498 9.7786 77.3324 10.0159C77.415 10.2533 77.5507 10.4687 77.729 10.6458C77.9073 10.8228 78.1237 10.957 78.3616 11.0379C78.5995 11.1189 78.8528 11.1446 79.1021 11.113C79.3731 11.1166 79.6412 11.0572 79.8854 10.9396C80.1295 10.8219 80.343 10.6492 80.5091 10.435C80.8848 9.97657 81.0835 9.39854 81.0691 8.806V4.664H82.4761V12.164L82.4901 12.171ZM87.0631 12.419C86.5829 12.4198 86.1083 12.3165 85.6719 12.1162C85.2355 11.916 84.8476 11.6235 84.5351 11.259C83.8454 10.4808 83.4734 9.47169 83.4931 8.432C83.4734 7.39231 83.8454 6.38322 84.5351 5.605C85.0236 5.04178 85.6854 4.6568 86.4165 4.51055C87.1475 4.3643 87.9065 4.46506 88.5741 4.797C89.0029 5.00513 89.3642 5.33031 89.6161 5.735H89.6811L89.6161 4.693V1.225H91.0231V12.182H89.6811V11.14H89.6161C89.3574 11.539 88.998 11.8625 88.5741 12.078C88.1028 12.3047 87.586 12.4207 87.0631 12.417M87.2851 11.127C87.6063 11.1378 87.9258 11.0754 88.2193 10.9444C88.5128 10.8134 88.7726 10.6173 88.9791 10.371C89.4509 9.83203 89.6982 9.13274 89.6701 8.417C89.6939 7.70583 89.447 7.01213 88.9791 6.476C88.7679 6.23441 88.5075 6.04079 88.2153 5.90813C87.9232 5.77547 87.606 5.70683 87.2851 5.70683C86.9642 5.70683 86.6471 5.77547 86.3549 5.90813C86.0627 6.04079 85.8023 6.23441 85.5911 6.476C85.1232 7.01213 84.8763 7.70583 84.9001 8.417C84.8716 9.12888 85.1192 9.82424 85.5911 10.358C85.8001 10.6021 86.0601 10.7975 86.3528 10.9304C86.6455 11.0632 86.9637 11.1303 87.2851 11.127Z" fill="white"/>
<path id="Path 15996" d="M6.76608 7.362V5.668H12.4341C12.4943 6.01208 12.5247 6.3607 12.5251 6.71C12.5721 8.17216 12.0436 9.59441 11.0531 10.671C10.4968 11.2518 9.82346 11.7078 9.07768 12.0088C8.3319 12.3098 7.53068 12.4489 6.72708 12.417C5.07226 12.4135 3.48512 11.7598 2.30789 10.5967C1.13067 9.43374 0.457692 7.85465 0.434082 6.2C0.460311 4.54774 1.13466 2.97193 2.3118 1.81219C3.48894 0.652444 5.07461 0.00162789 6.72708 -1.46683e-08C7.51298 -0.0114536 8.29331 0.133573 9.02261 0.426634C9.75192 0.719695 10.4156 1.15493 10.9751 1.707L9.77508 2.907C8.95363 2.11639 7.85412 1.68068 6.71408 1.694C6.12509 1.69327 5.54184 1.80978 4.99834 2.03676C4.45483 2.26373 3.96195 2.59662 3.54841 3.01603C3.13487 3.43543 2.80895 3.93295 2.58965 4.4796C2.37035 5.02624 2.26206 5.61107 2.27108 6.2C2.2626 6.78897 2.37124 7.37375 2.59069 7.92038C2.81013 8.467 3.13601 8.96457 3.54939 9.38418C3.96276 9.8038 4.4554 10.1371 4.99868 10.3647C5.54196 10.5923 6.12505 10.7097 6.71408 10.71C7.29283 10.7332 7.87003 10.6351 8.40858 10.4219C8.94712 10.2087 9.43508 9.8851 9.84108 9.472C10.3742 8.88987 10.6995 8.14754 10.7661 7.361L6.76608 7.362Z" fill="white"/>
<path id="Path 15997" d="M21.1642 8.417C21.1667 9.21125 20.9336 9.98839 20.4942 10.65C20.0548 11.3117 19.429 11.8281 18.6959 12.1338C17.9629 12.4395 17.1556 12.5208 16.3763 12.3675C15.597 12.2141 14.8807 11.8329 14.3182 11.2722C13.7556 10.7115 13.3721 9.99649 13.2163 9.21769C13.0604 8.43889 13.1391 7.63135 13.4424 6.89731C13.7458 6.16327 14.2601 5.53576 14.9203 5.09423C15.5805 4.65269 16.3569 4.41701 17.1512 4.417C17.6795 4.40812 18.2043 4.50541 18.6943 4.70312C19.1843 4.90083 19.6297 5.19493 20.0039 5.56797C20.3782 5.94101 20.6737 6.3854 20.873 6.8748C21.0723 7.3642 21.1713 7.88863 21.1642 8.417ZM19.4182 8.417C19.3864 7.9781 19.2272 7.55801 18.9602 7.20829C18.6931 6.85857 18.3297 6.59443 17.9146 6.44828C17.4996 6.30214 17.0509 6.28034 16.6236 6.38558C16.1963 6.49081 15.809 6.7185 15.5093 7.04069C15.2096 7.36288 15.0105 7.76557 14.9363 8.19932C14.8622 8.63308 14.9163 9.07904 15.0921 9.48248C15.2678 9.88592 15.5575 10.2293 15.9255 10.4704C16.2936 10.7116 16.7241 10.84 17.1642 10.84C17.4727 10.8336 17.7769 10.7653 18.0585 10.6391C18.3402 10.5129 18.5937 10.3314 18.8039 10.1055C19.0141 9.87948 19.1768 9.61359 19.2823 9.32355C19.3878 9.03351 19.434 8.72523 19.4182 8.417Z" fill="white"/>
<path id="Path 15998" d="M29.919 8.417C29.9216 9.21125 29.6884 9.98839 29.2491 10.65C28.8097 11.3117 28.1838 11.8281 27.4508 12.1338C26.7177 12.4395 25.9104 12.5208 25.1311 12.3675C24.3518 12.2141 23.6356 11.8329 23.073 11.2722C22.5105 10.7115 22.127 9.99649 21.9711 9.21769C21.8152 8.43889 21.8939 7.63135 22.1973 6.89731C22.5006 6.16327 23.015 5.53576 23.6752 5.09423C24.3354 4.65269 25.1118 4.41701 25.906 4.417C26.4344 4.40812 26.9591 4.50541 27.4492 4.70312C27.9392 4.90083 28.3846 5.19493 28.7588 5.56797C29.1331 5.94101 29.4286 6.3854 29.6279 6.8748C29.8272 7.3642 29.9262 7.88863 29.919 8.417ZM28.16 8.417C28.1283 7.9781 27.9691 7.55801 27.702 7.20829C27.435 6.85857 27.0716 6.59443 26.6565 6.44828C26.2414 6.30214 25.7927 6.28034 25.3655 6.38558C24.9382 6.49081 24.5509 6.7185 24.2512 7.04069C23.9515 7.36288 23.7523 7.76557 23.6782 8.19932C23.6041 8.63308 23.6582 9.07904 23.8339 9.48248C24.0097 9.88592 24.2993 10.2293 24.6674 10.4704C25.0355 10.7116 25.466 10.84 25.906 10.84C26.2146 10.8336 26.5188 10.7653 26.8004 10.6391C27.0821 10.5129 27.3355 10.3314 27.5458 10.1055C27.756 9.87948 27.9187 9.61359 28.0242 9.32355C28.1297 9.03351 28.1759 8.72523 28.16 8.417Z" fill="white"/>
<path id="Path 15999" d="M38.2972 4.665V11.844C38.2972 14.789 36.5512 16 34.5052 16C33.747 16.0036 33.005 15.7812 32.3737 15.3612C31.7425 14.9413 31.2507 14.3427 30.9612 13.642L32.4852 13.004C32.6412 13.4131 32.9153 13.7665 33.2727 14.0193C33.63 14.2722 34.0546 14.4131 34.4922 14.424C34.7953 14.4401 35.0983 14.3887 35.3791 14.2735C35.6599 14.1582 35.9117 13.9821 36.1162 13.7577C36.3206 13.5333 36.4727 13.2663 36.5614 12.976C36.6502 12.6857 36.6733 12.3793 36.6292 12.079V11.506H36.5642C36.3015 11.8016 35.9776 12.0363 35.6149 12.1938C35.2522 12.3513 34.8595 12.4278 34.4642 12.418C33.4445 12.3598 32.4856 11.9137 31.7842 11.1712C31.0829 10.4286 30.6921 9.44591 30.6921 8.4245C30.6921 7.40309 31.0829 6.42038 31.7842 5.67785C32.4856 4.93531 33.4445 4.48921 34.4642 4.431C34.8582 4.4222 35.2496 4.49798 35.6118 4.65323C35.9741 4.80848 36.2988 5.0396 36.5642 5.331H36.6292V4.68H38.2972V4.665ZM36.7602 8.43C36.7852 8.12862 36.7493 7.82527 36.6546 7.53806C36.5599 7.25086 36.4083 6.98567 36.2088 6.75833C36.0094 6.53098 35.7662 6.34614 35.4938 6.21483C35.2214 6.08351 34.9253 6.0084 34.6232 5.994C34.0155 6.04494 33.4491 6.32234 33.0363 6.77121C32.6235 7.22008 32.3943 7.80766 32.3943 8.4175C32.3943 9.02734 32.6235 9.61492 33.0363 10.0638C33.4491 10.5127 34.0155 10.7901 34.6232 10.841C34.9237 10.8286 35.2187 10.7557 35.4904 10.6267C35.7621 10.4977 36.005 10.3151 36.2045 10.09C36.404 9.86494 36.5561 9.6019 36.6516 9.31666C36.747 9.03142 36.784 8.72985 36.7602 8.43Z" fill="white"/>
<path id="Rectangle 2779" d="M41.268 0.469H39.522V12.169H41.268V0.469Z" fill="white"/>
<path id="Path 16000" d="M48.0431 9.733L49.4111 10.645C49.0468 11.192 48.5526 11.6401 47.9727 11.9494C47.3928 12.2586 46.7453 12.4193 46.0881 12.417C45.5627 12.4239 45.0414 12.3248 44.5551 12.1257C44.0689 11.9266 43.6278 11.6316 43.2581 11.2582C42.8884 10.8849 42.5977 10.4409 42.4034 9.95275C42.2091 9.46459 42.1151 8.94228 42.1271 8.417C42.1001 7.90434 42.1772 7.39152 42.3538 6.90949C42.5304 6.42746 42.8029 5.98621 43.1548 5.61239C43.5066 5.23857 43.9306 4.93991 44.4011 4.73446C44.8715 4.52901 45.3788 4.42102 45.8921 4.417C46.6535 4.43764 47.39 4.69275 48.001 5.14752C48.612 5.6023 49.0678 6.23456 49.3061 6.958L49.4881 7.414L44.1461 9.629C44.3091 10.0036 44.5819 10.32 44.9284 10.5364C45.275 10.7527 45.679 10.859 46.0871 10.841C46.4811 10.8428 46.8686 10.7416 47.2113 10.5474C47.5541 10.3532 47.8401 10.0728 48.0411 9.734M43.8591 8.288L47.4291 6.803C47.2921 6.53159 47.0782 6.30654 46.8141 6.15591C46.5501 6.00529 46.2475 5.93575 45.9441 5.956C45.6536 5.97066 45.3688 6.04281 45.1063 6.16826C44.8438 6.29371 44.6088 6.46997 44.4149 6.68685C44.221 6.90373 44.072 7.15692 43.9766 7.43175C43.8812 7.70659 43.8413 7.99762 43.8591 8.288Z" fill="white"/>
</g>
</g>
</g>
</g>
<defs>
<clipPath id="clip0_11_1554">
<rect width="90.593" height="16" fill="white" transform="translate(0.434082)"/>
</clipPath>
</defs>
</svg>
