<svg width="70" height="13" viewBox="0 0 70 13" fill="none" xmlns="http://www.w3.org/2000/svg">
<path id="Path 16013" d="M0.0511017 11.993V10.948H1.5101V2.62H0.0480957V1.575H4.2271V2.62H2.7641V10.948H4.2271V11.993H0.0511017ZM6.5101 1.575H10.7941C11.1593 1.54156 11.5274 1.58735 11.8733 1.70923C12.2192 1.83112 12.5347 2.02623 12.7982 2.28124C13.0618 2.53625 13.2672 2.84514 13.4004 3.18682C13.5336 3.52849 13.5915 3.8949 13.5701 4.261C13.6243 4.77502 13.4797 5.29031 13.166 5.70109C12.8523 6.11188 12.3933 6.387 11.8831 6.47V6.559C12.4713 6.61716 13.0137 6.90217 13.3953 7.35358C13.7769 7.80499 13.9677 8.38731 13.9271 8.977C13.9563 9.35296 13.9093 9.73095 13.7889 10.0883C13.6684 10.4456 13.477 10.775 13.2262 11.0565C12.9754 11.3381 12.6702 11.5661 12.3291 11.7268C11.988 11.8876 11.6179 11.9778 11.2411 11.992H6.5101V1.575ZM7.7641 6.082H10.6451C10.8481 6.11076 11.0549 6.09424 11.2508 6.03362C11.4466 5.97299 11.6266 5.86977 11.7778 5.73135C11.929 5.59293 12.0478 5.42275 12.1254 5.23303C12.2031 5.0433 12.2378 4.83873 12.2271 4.634V4.127C12.2378 3.92227 12.2031 3.7177 12.1254 3.52797C12.0478 3.33825 11.929 3.16807 11.7778 3.02965C11.6266 2.89123 11.4466 2.788 11.2508 2.72738C11.0549 2.66675 10.8481 2.65023 10.6451 2.679H7.7641V6.082ZM7.7641 10.888H10.8541C11.0784 10.9189 11.3068 10.8995 11.5228 10.8312C11.7387 10.7629 11.9366 10.6474 12.1024 10.493C12.2681 10.3387 12.3974 10.1494 12.4809 9.93892C12.5644 9.72841 12.6 9.50196 12.5851 9.276V8.769C12.6 8.54303 12.5644 8.31659 12.4809 8.10608C12.3974 7.89558 12.2681 7.7063 12.1024 7.55197C11.9366 7.39764 11.7387 7.28213 11.5228 7.21381C11.3068 7.14549 11.0784 7.12609 10.8541 7.157H7.7641V10.888ZM24.3641 3.216H24.2891L23.4081 4.962L20.9161 9.504L18.4381 4.967L17.5571 3.236H17.4831V11.997H16.2601V1.575H17.9021L20.8871 7.187H20.9471L23.9471 1.575H25.5891V11.993H24.3651L24.3641 3.216ZM30.6471 6.858C30.6471 3.336 32.4531 1.395 35.2591 1.395C36.0859 1.33009 36.9115 1.5331 37.614 1.974C38.3164 2.41489 38.8581 3.07022 39.1591 3.843L37.2041 4.858C37.1092 4.42352 36.8608 4.03787 36.5044 3.77186C36.148 3.50586 35.7076 3.37737 35.2641 3.41C33.9361 3.41 33.0551 4.31 33.0551 5.947V7.619C33.0551 9.261 33.9361 10.156 35.2641 10.156C35.7322 10.1601 36.1887 10.0105 36.5635 9.73017C36.9383 9.4498 37.2108 9.05417 37.3391 8.604L39.1901 9.679C38.8683 10.4454 38.3196 11.095 37.6178 11.5405C36.916 11.986 36.0946 12.206 35.2641 12.171C32.4581 12.171 30.6521 10.38 30.6521 6.858M42.8461 11.992C42.5516 12.0371 42.2506 12.013 41.967 11.9217C41.6834 11.8303 41.4249 11.6742 41.2121 11.4657C40.9992 11.2573 40.8378 11.0021 40.7406 10.7204C40.6434 10.4388 40.6131 10.1384 40.6521 9.843V0.943001H42.8611V10.271H43.8461V11.987L42.8461 11.992ZM44.6821 8.067C44.6821 5.545 46.0551 3.977 48.3541 3.977C50.6531 3.977 52.0251 5.544 52.0251 8.067C52.0251 10.59 50.6521 12.167 48.3541 12.167C46.0561 12.167 44.6821 10.585 44.6821 8.067ZM49.7271 8.873V7.273C49.7271 6.288 49.2201 5.721 48.3541 5.721C47.4881 5.721 46.9811 6.288 46.9811 7.273V8.873C46.9811 9.858 47.4881 10.425 48.3541 10.425C49.2201 10.425 49.7271 9.858 49.7271 8.873ZM58.2201 10.679H58.1451C58.0026 11.1395 57.7079 11.5379 57.3092 11.809C56.9106 12.0801 56.4317 12.2077 55.9511 12.171C54.3511 12.171 53.5031 11.052 53.5031 9.082V4.157H55.7101V8.888C55.7101 9.843 56.0231 10.38 56.8291 10.38C56.9952 10.3994 57.1634 10.3851 57.3239 10.3382C57.4843 10.2913 57.6337 10.2126 57.7632 10.1068C57.8926 10.0011 57.9995 9.87037 58.0775 9.72249C58.1555 9.57461 58.203 9.41258 58.2171 9.246V4.157H60.4261V11.993H58.2101L58.2201 10.679ZM67.2941 10.679H67.2101C67.0697 11.1221 66.7888 11.5074 66.4099 11.7766C66.031 12.0458 65.5747 12.1842 65.1101 12.171C63.1251 12.171 62.0951 10.723 62.0951 8.071C62.0951 5.419 63.1251 3.981 65.1101 3.981C65.5755 3.96499 66.0331 4.10248 66.4126 4.37228C66.7921 4.64208 67.0723 5.02922 67.2101 5.474H67.2851V0.948002H69.4941V11.993H67.2851L67.2941 10.679ZM67.2941 9.231V6.918C67.2941 6.202 66.6821 5.769 65.8461 5.769C65.6411 5.77136 65.4389 5.81648 65.2523 5.90148C65.0657 5.98648 64.899 6.10948 64.7627 6.26262C64.6264 6.41577 64.5236 6.59567 64.4608 6.79084C64.398 6.986 64.3767 7.19211 64.3981 7.396V8.754C64.3765 8.95792 64.3977 9.1641 64.4604 9.35933C64.5232 9.55455 64.626 9.73452 64.7623 9.8877C64.8986 10.0409 65.0655 10.1639 65.2521 10.2488C65.4387 10.3338 65.6411 10.3788 65.8461 10.381C66.6821 10.381 67.2941 9.947 67.2941 9.231Z" fill="white"/>
</svg>
