<svg width="182" height="28" viewBox="0 0 182 28" fill="none" xmlns="http://www.w3.org/2000/svg">
<g id="Lockup A">
<path id="Divider" d="M124.847 28.0001C124.715 28.0001 124.589 27.954 124.496 27.872C124.402 27.7899 124.35 27.6787 124.35 27.5626V0.437622C124.35 0.32159 124.402 0.21031 124.496 0.128263C124.589 0.0462157 124.715 0.00012207 124.847 0.00012207C124.979 0.00012207 125.105 0.0462157 125.199 0.128263C125.292 0.21031 125.344 0.32159 125.344 0.437622V27.5626C125.344 27.6787 125.292 27.7899 125.199 27.872C125.105 27.954 124.979 28.0001 124.847 28.0001Z" fill="black"/>
<g id="Red Hat Logo">
<path id="Vector" d="M20.4037 11.7375C22.4136 11.7375 25.3215 11.3726 25.3215 9.26841C25.3275 9.10601 25.3108 8.94357 25.2717 8.78477L24.0748 4.20861C23.7984 3.20174 23.5558 2.74497 21.5476 1.86113C19.9844 1.1583 16.5897 0.00012207 15.5839 0.00012207C14.6489 0.00012207 14.371 1.06638 13.2624 1.06638C12.1892 1.06638 11.3923 0.274466 10.3882 0.274466C9.42426 0.274466 8.79609 0.852849 8.31089 2.04214C8.31089 2.04214 6.95975 5.39649 6.78624 5.88295C6.75758 5.97213 6.74458 6.06465 6.74768 6.15729C6.74768 7.46113 12.5844 11.7375 20.4037 11.7375ZM25.6332 10.1225C25.9111 11.2807 25.9111 11.4023 25.9111 11.5551C25.9111 13.5349 23.3823 14.6337 20.0583 14.6337C12.5314 14.6322 5.95724 10.7617 5.95724 8.20214C5.95681 7.84566 6.03937 7.49288 6.19983 7.16558C3.49755 7.28578 0 7.71285 0 10.4252C0 14.8769 11.9836 20.3638 21.4721 20.3638C28.7467 20.3638 30.5815 17.4676 30.5815 15.1809C30.5815 13.3821 28.8142 11.3401 25.6283 10.1211" fill="#EE0000"/>
<path id="Vector_2" d="M25.6284 10.121C25.9063 11.2792 25.9063 11.4008 25.9063 11.5536C25.9063 13.5334 23.3775 14.6322 20.0535 14.6322C12.5314 14.6322 5.95728 10.7617 5.95728 8.20206C5.95684 7.84557 6.03941 7.4928 6.19987 7.16549L6.78788 5.88428C6.75884 5.97293 6.7453 6.06496 6.74772 6.15721C6.74772 7.46105 12.5845 11.7374 20.4037 11.7374C22.4136 11.7374 25.3215 11.3726 25.3215 9.26832C25.3275 9.10592 25.3108 8.94348 25.2717 8.78468L25.6284 10.121Z" fill="black"/>
<path id="Vector_3" d="M93.0602 13.0526C93.0602 14.734 94.2089 15.5514 96.3039 15.5514C96.9489 15.5373 97.5899 15.4575 98.2142 15.3138V13.3651C97.8152 13.4764 97.3988 13.5318 96.9803 13.5292C96.1176 13.5292 95.7978 13.2916 95.7978 12.5775V9.58796H98.2977V7.57988H95.7978V5.03442L93.0666 5.55483V7.57988H91.2544V9.58796H93.0618L93.0602 13.0526ZM84.5453 13.0979C84.5453 12.5775 85.1381 12.3243 86.033 12.3243C86.58 12.3271 87.1246 12.3869 87.6556 12.5025V13.5136C87.1338 13.7645 86.5472 13.8926 85.9527 13.8855C85.0755 13.8855 84.5501 13.5886 84.5501 13.0979M85.3855 15.5811C86.3495 15.5811 87.1271 15.4029 87.8533 14.9716V15.4482H90.5555V10.4053C90.5555 8.48776 89.0871 7.43563 86.6371 7.43563C85.2682 7.43563 83.9155 7.71846 82.4599 8.29826L83.4399 10.0688C84.4874 9.68129 85.3679 9.44371 86.1438 9.44371C87.2685 9.44371 87.85 9.82977 87.85 10.6189V11.0049C87.1879 10.8541 86.5065 10.779 85.8225 10.7815C83.5235 10.7815 82.1386 11.63 82.1386 13.1474C82.1386 14.5304 83.3885 15.5853 85.3823 15.5853M70.531 15.4524H73.4373V11.3726H78.3037V15.4482H81.21V5.03725H78.3101V9.03786H73.4437V5.03725H70.5374L70.531 15.4524ZM59.4632 11.5069C59.4632 10.3756 60.4769 9.51301 61.812 9.51301C62.5077 9.4999 63.1835 9.71803 63.7046 10.1239V12.8688C63.4516 13.0777 63.1541 13.2406 62.8293 13.3478C62.5045 13.4551 62.1587 13.5047 61.812 13.4938C60.4946 13.4938 59.4632 12.6312 59.4632 11.5013M63.7383 15.4425H66.4422V4.51685L63.711 5.03725V7.99705C63.0157 7.6501 62.2288 7.4706 61.4296 7.47664C58.8286 7.47664 56.7834 9.24574 56.7834 11.5069C56.7753 12.0374 56.8873 12.5639 57.1128 13.0559C57.3384 13.5478 57.673 13.9953 58.0971 14.3722C58.5213 14.749 59.0264 15.0478 59.5832 15.251C60.1399 15.4542 60.737 15.5577 61.3397 15.5556C62.2016 15.5593 63.0421 15.3199 63.7383 14.8726V15.4425ZM51.337 9.40412C52.1982 9.40412 52.9243 9.89483 53.2119 10.6528H49.483C49.7529 9.86513 50.4293 9.40412 51.3419 9.40412M46.7245 11.5211C46.7245 13.812 48.8532 15.5966 51.5893 15.5966C53.093 15.5966 54.1919 15.2389 55.3246 14.4059L53.5156 12.9918C53.093 13.3793 52.4681 13.5871 51.7258 13.5871C51.2591 13.5987 50.7993 13.4856 50.407 13.2627C50.0147 13.0398 49.7082 12.7176 49.528 12.3385H55.8981V11.7445C55.8981 9.24574 53.9895 7.44695 51.3868 7.44695C50.775 7.43882 50.1675 7.53845 49.6001 7.73998C49.0327 7.94151 48.5167 8.24087 48.0826 8.62046C47.6485 9.00005 47.3051 9.4522 47.0724 9.95033C46.8397 10.4485 46.7225 10.9825 46.7277 11.5211M42.0108 7.22351C42.9747 7.22351 43.5145 7.75806 43.5145 8.39866C43.5145 9.03927 42.9731 9.57381 42.0108 9.57381H39.1382V7.22351H42.0108ZM36.2271 15.4482H39.1334V11.6554H41.3456L43.5772 15.4482H46.8209L44.2182 11.2835C44.8797 11.0467 45.4455 10.6412 45.8429 10.119C46.2403 9.59681 46.4511 8.98192 46.4482 8.35341C46.4482 6.47967 44.7757 5.03725 42.271 5.03725H36.2319L36.2271 15.4482Z" fill="black"/>
</g>
<g id="Group">
<path id="Vector_4" d="M175.94 15.0607C175.284 15.0613 174.629 14.9949 173.99 14.8627C173.48 14.7722 172.986 14.6189 172.525 14.4074C172.383 14.3569 172.262 14.2691 172.178 14.156C172.095 14.0429 172.053 13.91 172.059 13.7752V13.2096C172.059 12.972 172.155 12.8546 172.346 12.8546C172.426 12.8551 172.505 12.8681 172.579 12.8928C172.661 12.9202 172.768 12.9598 172.901 13.0116C173.349 13.1885 173.817 13.3213 174.298 13.4076C174.794 13.4999 175.3 13.5473 175.807 13.549C176.606 13.549 177.224 13.4241 177.661 13.1742C177.867 13.0635 178.036 12.9066 178.151 12.7195C178.266 12.5325 178.323 12.3219 178.315 12.1094C178.32 11.9644 178.292 11.82 178.233 11.6845C178.174 11.5491 178.085 11.4253 177.971 11.3203C177.742 11.1101 177.317 10.9121 176.695 10.7264L174.853 10.2144C173.918 9.95141 173.241 9.56912 172.822 9.06757C172.411 8.59634 172.189 8.01846 172.191 7.42434C172.18 6.98749 172.298 6.55566 172.534 6.17141C172.762 5.81031 173.072 5.49412 173.444 5.24232C173.839 4.97825 174.287 4.78073 174.764 4.65969C175.283 4.52451 175.821 4.45546 176.361 4.45464C176.647 4.45626 176.932 4.47278 177.216 4.50414C177.505 4.53808 177.778 4.58191 178.037 4.63282C178.296 4.68373 178.537 4.74454 178.762 4.81101C178.944 4.86276 179.122 4.92853 179.292 5.00757C179.437 5.07564 179.565 5.16898 179.668 5.28191C179.748 5.3935 179.788 5.52449 179.78 5.65666V6.18979C179.78 6.42595 179.682 6.54474 179.491 6.54474C179.321 6.52576 179.158 6.47771 179.009 6.40333C178.238 6.10613 177.402 5.95947 176.56 5.97343C175.838 5.97343 175.276 6.07855 174.875 6.28878C174.477 6.49949 174.276 6.83464 174.276 7.29565C174.272 7.44463 174.304 7.59264 174.369 7.73022C174.434 7.86781 174.531 7.99193 174.653 8.09464C174.904 8.31242 175.37 8.51983 176.051 8.71686L177.846 9.2302C178.762 9.49511 179.417 9.8576 179.812 10.3177C180.201 10.7725 180.407 11.3281 180.399 11.8973C180.408 12.3522 180.294 12.8026 180.066 13.211C179.846 13.5999 179.532 13.9416 179.145 14.2122C178.726 14.5007 178.248 14.7153 177.737 14.8443C177.155 14.9934 176.551 15.0663 175.945 15.0607H175.94ZM159.653 14.7637C159.483 14.7751 159.314 14.7374 159.171 14.6563C159.033 14.5342 158.939 14.3801 158.898 14.2122L155.925 5.48272C155.868 5.33545 155.83 5.18255 155.815 5.02737C155.808 4.99026 155.812 4.95239 155.825 4.91677C155.839 4.88116 155.862 4.8488 155.892 4.82228C155.922 4.79575 155.959 4.7758 155.999 4.76402C156.039 4.75225 156.082 4.74896 156.125 4.75444H157.367C157.542 4.73928 157.718 4.77773 157.865 4.86333C157.993 4.9875 158.081 5.13919 158.122 5.30313L160.25 12.7712L162.226 5.30313C162.251 5.13583 162.337 4.98009 162.471 4.85909C162.623 4.77527 162.801 4.73706 162.98 4.7502H164C164.179 4.73601 164.359 4.77429 164.511 4.85909C164.643 4.98083 164.729 5.1362 164.755 5.30313L166.76 12.866L168.95 5.30313C168.989 5.13765 169.077 4.9843 169.206 4.85909C169.353 4.77412 169.529 4.73574 169.705 4.7502H170.881C170.923 4.74482 170.966 4.74808 171.006 4.75971C171.046 4.77134 171.083 4.79102 171.113 4.81721C171.143 4.8434 171.166 4.87537 171.179 4.91062C171.193 4.94586 171.197 4.98341 171.191 5.0203C171.193 5.08055 171.187 5.14075 171.174 5.19989C171.151 5.2924 171.122 5.38356 171.087 5.47282L168.023 14.2122C167.985 14.3799 167.892 14.5342 167.756 14.6563C167.613 14.7371 167.444 14.7753 167.274 14.7651H166.182C166.001 14.7796 165.82 14.7376 165.671 14.6464C165.54 14.5193 165.456 14.3607 165.428 14.191L163.447 6.92373L161.494 14.191C161.466 14.3609 161.381 14.5195 161.25 14.6464C161.101 14.738 160.921 14.7802 160.74 14.7651L159.653 14.7637ZM149.469 13.5405C149.915 13.5353 150.356 13.465 150.776 13.3326C151.241 13.1901 151.655 12.9411 151.975 12.6114C152.181 12.4038 152.328 12.1569 152.407 11.8902C152.496 11.5705 152.537 11.242 152.529 10.913V10.4393C152.145 10.3587 151.756 10.2964 151.364 10.2526C150.971 10.2074 150.574 10.1847 150.177 10.1847C149.334 10.1847 148.705 10.3365 148.291 10.6401C147.878 10.9427 147.671 11.3783 147.671 11.9425C147.671 12.47 147.831 12.8674 148.137 13.1375C148.442 13.4076 148.89 13.5419 149.469 13.5419V13.5405ZM154.61 11.8209C154.597 12.1615 154.645 12.5018 154.753 12.8292C154.865 13.1085 155.004 13.3791 155.167 13.6381C155.22 13.7162 155.251 13.8046 155.255 13.8955C155.249 13.9649 155.224 14.0319 155.181 14.0906C155.139 14.1493 155.08 14.1979 155.011 14.232L154.208 14.7058C154.11 14.7652 153.994 14.799 153.875 14.8033C153.803 14.8014 153.733 14.7864 153.667 14.7594C153.602 14.7324 153.544 14.694 153.496 14.6464C153.321 14.4889 153.169 14.3127 153.043 14.1217C152.916 13.9308 152.788 13.7116 152.654 13.4613C151.664 14.4983 150.422 15.0169 148.929 15.0169C147.863 15.0169 147.02 14.7468 146.4 14.2066C145.78 13.6664 145.47 12.9423 145.47 12.0344C145.47 11.0728 145.854 10.2993 146.623 9.71383C147.392 9.12838 148.431 8.83659 149.74 8.83848C150.19 8.8408 150.64 8.87152 151.085 8.9304C151.552 8.98979 152.036 9.07181 152.539 9.17646V8.34919C152.539 7.49316 152.339 6.89074 151.939 6.54191C151.541 6.19404 150.85 6.01727 149.867 6.01585C149.407 6.01713 148.949 6.06698 148.503 6.16434C148.037 6.26192 147.581 6.3905 147.137 6.54899C146.993 6.60679 146.845 6.65639 146.694 6.69747C146.628 6.71376 146.561 6.72372 146.493 6.72717C146.316 6.72717 146.228 6.60838 146.228 6.3708V5.81787C146.215 5.68168 146.246 5.54504 146.316 5.42333C146.413 5.31923 146.537 5.23764 146.678 5.18575C147.189 4.96697 147.725 4.79496 148.276 4.67242C148.919 4.52556 149.581 4.45236 150.245 4.45464C151.754 4.45464 152.86 4.76104 153.562 5.37383C154.265 5.98663 154.617 6.91148 154.618 8.14838L154.61 11.8209Z" fill="#232F3E"/>
<path id="Vector_5" fill-rule="evenodd" clip-rule="evenodd" d="M178.337 20.618C174.16 23.36 168.111 24.818 162.898 24.818C155.921 24.8452 149.189 22.5592 144.04 18.4148C143.648 18.1008 143.997 17.6709 144.467 17.9142C149.838 20.6986 156.478 22.3715 163.338 22.3715C168.286 22.3492 173.18 21.4578 177.732 19.7497C178.437 19.4825 179.03 20.1641 178.337 20.618Z" fill="#FF9900"/>
<path id="Vector_6" fill-rule="evenodd" clip-rule="evenodd" d="M180.074 18.8533C179.539 18.2452 176.539 18.5704 175.198 18.7118C174.79 18.7557 174.727 18.4389 175.095 18.2084C177.484 16.7151 181.399 17.1464 181.855 17.6428C182.312 18.1391 181.733 21.6405 179.495 23.3078C179.15 23.5652 178.824 23.428 178.976 23.0886C179.483 21.9686 180.61 19.4613 180.075 18.8462L180.074 18.8533Z" fill="#FF9900"/>
</g>
</g>
</svg>
