<svg width="175" height="24" viewBox="0 0 175 24" fill="none" xmlns="http://www.w3.org/2000/svg">
<g id="Logo-Red-Hat-IBM_Lockup 1" clip-path="url(#clip0_70_1498)">
<g id="Lockup A">
<path id="Divider" d="M106.968 24.0001C106.877 24.0001 106.79 23.9606 106.726 23.8903C106.661 23.82 106.625 23.7247 106.625 23.6253V0.374864C106.625 0.275347 106.662 0.179906 106.726 0.109536C106.79 0.0391668 106.878 -0.000366211 106.969 -0.000366211C107.06 -0.000366211 107.147 0.0391668 107.212 0.109536C107.276 0.179906 107.312 0.275347 107.312 0.374864V23.6253C107.312 23.6746 107.303 23.7234 107.286 23.769C107.269 23.8145 107.243 23.8558 107.212 23.8907C107.18 23.9255 107.142 23.9531 107.1 23.9718C107.058 23.9906 107.014 24.0002 106.968 24.0001Z" fill="black"/>
<g id="Red Hat Logo">
<path id="Path 95" d="M19.876 13.8332C21.7831 13.8332 24.5461 13.4031 24.5461 10.9237C24.5518 10.7321 24.5359 10.5405 24.4988 10.3532L23.3615 4.95969C23.0987 3.77262 22.8688 3.23446 20.9601 2.19046C19.4763 1.36523 16.2536 0 15.2988 0C14.4107 0 14.1471 1.25631 13.09 1.25631C12.071 1.25631 11.3156 0.323077 10.3608 0.323077C9.44567 0.323077 8.84744 1.00431 8.38777 2.40646C8.38777 2.40646 7.10511 6.36 6.94034 6.92954C6.91325 7.03458 6.90099 7.14353 6.90401 7.25262C6.90401 8.78954 12.4453 13.8295 19.8717 13.8295M24.8376 11.9262C24.9786 12.4775 25.0669 13.0433 25.1012 13.6145C25.1012 15.948 22.6998 17.2431 19.543 17.2431C12.3997 17.2449 6.16128 12.6831 6.16128 9.66646C6.16027 9.24636 6.23881 8.83058 6.39196 8.44523C3.82157 8.58462 0.5 9.09046 0.5 12.2871C0.5 17.5329 11.88 24 20.8899 24C27.7967 24 29.5407 20.5846 29.5407 17.892C29.5407 15.7689 27.8626 13.3689 24.8368 11.9289" fill="#EE0000"/>
<path id="Path 96" d="M24.8368 11.928C24.9778 12.4793 25.0661 13.0451 25.1004 13.6163C25.1004 15.9498 22.699 17.2449 19.5422 17.2449C12.3989 17.2449 6.15626 12.6831 6.15626 9.66644C6.15524 9.24634 6.23378 8.83056 6.38694 8.44521L6.94546 6.93506C6.91796 7.03941 6.90514 7.14773 6.90744 7.25629C6.90744 8.79321 12.4487 13.8332 19.8752 13.8332C21.7822 13.8332 24.5453 13.4031 24.5453 10.9228C24.551 10.7312 24.5351 10.5396 24.498 10.3523L24.8368 11.928Z" fill="black"/>
<path id="Path 97" d="M88.871 15.3831C88.871 17.3649 89.9618 18.3277 91.9509 18.3277C92.5628 18.3121 93.171 18.2191 93.7633 18.0507V15.7514C93.3849 15.8824 92.99 15.9475 92.593 15.9443C91.7734 15.9443 91.4701 15.6674 91.4701 14.8227V11.3003H93.8436V8.93352H91.4709V5.93259L88.8777 6.54552V8.93259H87.1565V11.2994H88.8743L88.871 15.3831ZM80.7855 15.4366C80.7855 14.8237 81.3465 14.5246 82.1982 14.5246C82.7172 14.528 83.234 14.5986 83.7378 14.7351V15.9267C83.2429 16.2226 82.6863 16.3736 82.1222 16.3652C81.2874 16.3652 80.7905 16.0154 80.7905 15.4366M81.584 18.3637C82.4145 18.3981 83.2341 18.1469 83.9271 17.6455V18.2095H86.4932V12.2631C86.4932 10.0034 85.0973 8.76275 82.7703 8.76275C81.3965 8.7833 80.0432 9.12976 78.804 9.77813L79.7335 11.8652C80.5373 11.4407 81.4087 11.19 82.2996 11.1268C83.3677 11.1268 83.9211 11.5818 83.9211 12.5114V12.9664C83.2923 12.7887 82.645 12.7003 81.9955 12.7034C79.8121 12.7034 78.4973 13.7031 78.4973 15.492C78.4973 17.1221 79.6803 18.3655 81.5772 18.3655M67.4738 18.2086H70.2369V13.4031H74.858V18.2031H77.616V5.93259H74.8656V10.6477H70.2445V5.93259H67.4848L67.4738 18.2086ZM56.9709 13.5618C56.9705 13.2457 57.0285 12.9327 57.1414 12.6416C57.2544 12.3506 57.42 12.0874 57.6283 11.868C57.8366 11.6485 58.0833 11.4773 58.3537 11.3645C58.624 11.2517 58.9124 11.1997 59.2016 11.2117C59.8623 11.1962 60.504 11.4533 60.9989 11.9317V15.1624C60.7587 15.4091 60.4763 15.6013 60.1678 15.728C59.8594 15.8548 59.531 15.9135 59.2016 15.9009C58.9129 15.9115 58.6251 15.8587 58.3554 15.7456C58.0857 15.6325 57.8395 15.4613 57.6315 15.2423C57.4234 15.0233 57.2578 14.7609 57.1443 14.4707C57.0308 14.1804 56.9719 13.8682 56.9709 13.5526M61.0267 18.1975H63.5929V5.32336L60.9997 5.93629V9.4246C60.42 9.04863 59.7686 8.82378 59.0964 8.76753C58.4242 8.71128 57.7491 8.82514 57.1237 9.10027C56.4984 9.37539 55.9395 9.80436 55.4905 10.3538C55.0416 10.9033 54.7147 11.5585 54.5352 12.2684C54.3557 12.9784 54.3286 13.724 54.4558 14.4473C54.583 15.1706 54.8612 15.8521 55.2688 16.4388C55.6763 17.0255 56.2022 17.5017 56.8056 17.8302C57.409 18.1588 58.0737 18.3309 58.7479 18.3332C59.5676 18.3383 60.3671 18.0561 61.0293 17.5283L61.0267 18.1975ZM49.2487 11.0806C49.6508 11.0852 50.0409 11.2306 50.3617 11.4955C50.6825 11.7603 50.917 12.1307 51.0308 12.552H47.4895C47.5853 12.1235 47.8126 11.7439 48.1334 11.4761C48.4543 11.2084 48.8494 11.0688 49.253 11.0806M44.8684 13.5729C44.8765 14.2218 45.0032 14.8625 45.2411 15.4572C45.4791 16.0518 45.8234 16.5885 46.2539 17.0357C46.6845 17.4829 47.1925 17.8316 47.7481 18.0612C48.3038 18.2909 48.8959 18.3968 49.4896 18.3729C50.7934 18.4192 52.0637 17.917 53.0384 16.9698L51.3223 15.3027C51.0974 15.54 50.8306 15.7247 50.5381 15.8453C50.2456 15.9659 49.9337 16.02 49.6214 16.0043C49.1785 16.0173 48.7424 15.8838 48.3702 15.6212C47.998 15.3586 47.7072 14.9793 47.536 14.5329H53.5851V13.8332C53.5851 10.8886 51.7726 8.76829 49.3011 8.76829C48.7203 8.75892 48.1437 8.87644 47.605 9.11393C47.0664 9.35141 46.5766 9.70409 46.1644 10.1512C45.7523 10.5984 45.4261 11.131 45.205 11.7178C44.9838 12.3046 44.8723 12.9337 44.8769 13.5683M40.3985 8.50336C40.5779 8.47959 40.7598 8.49767 40.9322 8.55639C41.1047 8.61512 41.2638 8.71315 41.399 8.84402C41.5342 8.97489 41.6425 9.13562 41.7166 9.31558C41.7907 9.49554 41.8291 9.69064 41.8291 9.88798C41.8291 10.0853 41.7907 10.2804 41.7166 10.4604C41.6425 10.6403 41.5342 10.8011 41.399 10.9319C41.2638 11.0628 41.1047 11.1608 40.9322 11.2196C40.7598 11.2783 40.5779 11.2964 40.3985 11.2726H37.671V8.50336H40.3985ZM34.9062 18.1957H37.671V13.7363H39.7733L41.8908 18.2058H44.9723L42.5008 13.2978C43.1289 13.0188 43.6662 12.5408 44.0435 11.9254C44.4209 11.31 44.6211 10.5853 44.6183 9.8446C44.6183 7.6366 43.0298 5.93629 40.652 5.93629H34.9122L34.9062 18.1957Z" fill="black"/>
</g>
<path id="Path 98" d="M167.926 2.92715H159.962L160.452 1.41699H167.926V2.92715Z" fill="#5987C5"/>
<path id="Path 99" d="M146.699 1.41699H154.092L154.576 2.92992H146.699V1.41699Z" fill="#5987C5"/>
<path id="Path 100" d="M140.825 1.41699C142.011 1.51594 143.131 2.04861 144.006 2.92899H130.603V1.41699H140.825Z" fill="#5987C5"/>
<path id="Path 101" d="M129.397 2.9253H120.087V1.41699H129.397V2.9253Z" fill="#5987C5"/>
<path id="Path 102" d="M167.926 5.75818H159.054C159.054 5.75818 159.537 4.25818 159.535 4.25818H167.926V5.75818Z" fill="#5987C5"/>
<path id="Path 103" d="M155.491 5.75906H146.699V4.25537H155.007L155.491 5.75906Z" fill="#5987C5"/>
<path id="Path 104" d="M145.049 4.25537C145.268 4.72253 145.399 5.23238 145.436 5.75537H130.606V4.25537H145.049Z" fill="#5987C5"/>
<path id="Path 105" d="M129.397 5.75906H120.087V4.25537H129.397V5.75906Z" fill="#5987C5"/>
<path id="Path 106" d="M158.142 8.59853L158.629 7.08838H165.292V8.59207H158.142V8.59853Z" fill="#5987C5"/>
<path id="Path 107" d="M155.918 7.08838L156.402 8.59853H149.32V7.08838H155.918Z" fill="#5987C5"/>
<path id="Path 108" d="M145.552 7.08838C145.558 7.59971 145.492 8.10902 145.357 8.59853H141.296V7.08838H145.552Z" fill="#5987C5"/>
<path id="Path 109" d="M126.688 8.59934H122.682V7.09473H126.688V8.59934Z" fill="#5987C5"/>
<path id="Path 110" d="M137.294 8.59853H133.3V7.08838H137.294V8.59853Z" fill="#5987C5"/>
<path id="Path 111" d="M153.255 10.2267V11.3713H149.32V9.87134H156.818L157.284 11.2717C157.284 11.2717 157.732 9.86857 157.742 9.87134H165.297V11.3713H161.384V10.2267L161.02 11.3713H153.625L153.263 10.2277L153.255 10.2267Z" fill="#5987C5"/>
<path id="Path 112" d="M133.3 9.86865H144.77C144.472 10.4364 144.087 10.9438 143.632 11.3687H133.3V9.86865Z" fill="#5987C5"/>
<path id="Path 113" d="M126.688 11.3723H122.682V9.86865H126.688V11.3723Z" fill="#5987C5"/>
<path id="Path 114" d="M165.29 14.2071H161.377V12.7034H165.29V14.2071Z" fill="#5987C5"/>
<path id="Path 115" d="M153.255 12.7034H149.32V14.2034H153.255V12.7034Z" fill="#5987C5"/>
<path id="Path 116" d="M160.583 12.7034C160.568 12.7034 160.125 14.2034 160.106 14.2034H154.529L154.039 12.7034H160.583Z" fill="#5987C5"/>
<path id="Path 117" d="M133.299 12.7034H143.608C144.08 13.139 144.495 13.6438 144.841 14.2034H133.301V12.7034H133.299Z" fill="#5987C5"/>
<path id="Path 118" d="M126.684 14.207V12.707H122.688V14.207H126.684Z" fill="#5987C5"/>
<path id="Path 119" d="M165.29 17.0373H161.377V15.5336H165.29V17.0373Z" fill="#5987C5"/>
<path id="Path 120" d="M153.254 17.0354H149.318V15.5336H153.254V17.0354Z" fill="#5987C5"/>
<path id="Path 121" d="M159.191 17.0456C159.191 17.0456 159.676 15.5336 159.682 15.5336H154.941C154.931 15.5336 155.426 17.0336 155.426 17.0336C155.426 17.0336 159.191 17.0465 159.191 17.0336V17.0456Z" fill="#5987C5"/>
<path id="Path 122" d="M133.3 17.0354V15.5354H137.349V17.0354H133.3Z" fill="#5987C5"/>
<path id="Path 123" d="M145.408 15.5336C145.572 16.0178 145.657 16.5294 145.661 17.0456H141.37V15.5336H145.408Z" fill="#5987C5"/>
<path id="Path 124" d="M126.684 17.0354H122.688V15.5336H126.684V17.0354Z" fill="#5987C5"/>
<path id="Path 125" d="M167.926 19.812H161.377V18.3102H167.926V19.812Z" fill="#5987C5"/>
<path id="Path 126" d="M153.254 19.812H146.696V18.3102H153.254V19.812Z" fill="#5987C5"/>
<path id="Path 127" d="M158.309 19.812H156.31L155.831 18.3102H158.773L158.309 19.812Z" fill="#5987C5"/>
<path id="Path 128" d="M120.087 18.3065V19.8065H129.393V18.3065H120.087Z" fill="#5987C5"/>
<path id="Path 129" d="M145.494 18.3065C145.442 18.8466 145.264 19.3632 144.977 19.8065H130.606V18.3065H145.494Z" fill="#5987C5"/>
<path id="Path 130" d="M157.405 22.6477H157.22L156.753 21.1412H157.885L157.405 22.6477Z" fill="#5987C5"/>
<path id="Path 131" d="M167.926 22.6514H161.377V21.1412H167.926V22.6514Z" fill="#5987C5"/>
<path id="Path 132" d="M130.603 22.6487V21.1487H144.084C143.142 22.1117 141.9 22.6478 140.61 22.6487H130.607" fill="#5987C5"/>
<path id="Path 133" d="M153.254 22.6514H146.696V21.1412H153.254V22.6514Z" fill="#5987C5"/>
<path id="Path 134" d="M129.391 21.1487V22.6487H120.084V21.1487C120.084 21.1487 129.383 21.1579 129.391 21.1487Z" fill="#5987C5"/>
<path id="Path 135" d="M172.557 20.46C172.629 20.4616 172.702 20.4589 172.775 20.4517C172.839 20.4479 172.902 20.4317 172.96 20.4037C173.013 20.3795 173.058 20.3374 173.087 20.2837C173.124 20.215 173.141 20.136 173.136 20.0566C173.14 19.988 173.125 19.9198 173.094 19.86C173.067 19.8126 173.028 19.774 172.982 19.7483C172.935 19.7216 172.883 19.7041 172.83 19.6966C172.772 19.6868 172.714 19.6819 172.655 19.6819H172.197V20.46H172.557ZM172.709 19.3782C172.918 19.3582 173.127 19.4172 173.301 19.5453C173.367 19.6109 173.418 19.6919 173.451 19.7822C173.484 19.8725 173.498 19.9698 173.492 20.0668C173.499 20.1558 173.487 20.2454 173.458 20.3288C173.429 20.4122 173.382 20.4874 173.323 20.5486C173.204 20.6539 173.058 20.7167 172.905 20.7286L173.541 21.8086H173.172L172.562 20.76H172.197V21.8086H171.848V19.3791L172.709 19.3782ZM171.141 21.3019C171.217 21.5122 171.33 21.7046 171.472 21.8686C171.617 22.0334 171.791 22.1639 171.984 22.2522C172.176 22.3405 172.383 22.3846 172.592 22.3819C172.802 22.3832 173.01 22.3367 173.202 22.2452C173.58 22.0624 173.877 21.7232 174.026 21.3019C174.107 21.0752 174.147 20.8336 174.145 20.5902C174.147 20.3517 174.106 20.115 174.026 19.8933C173.95 19.6844 173.838 19.4937 173.695 19.332C173.553 19.1761 173.386 19.0509 173.202 18.9628C173.009 18.8719 172.802 18.8254 172.592 18.8262C172.378 18.8245 172.166 18.871 171.969 18.9628C171.783 19.0499 171.614 19.1752 171.472 19.332C171.33 19.4946 171.217 19.685 171.14 19.8933C171.061 20.1153 171.02 20.3517 171.021 20.5902C171.02 20.8335 171.061 21.0749 171.141 21.3019ZM170.825 19.7732C170.976 19.3991 171.224 19.0812 171.537 18.8585C171.851 18.6358 172.218 18.5181 172.592 18.5197C172.845 18.5176 173.096 18.5716 173.329 18.6785C173.786 18.8844 174.152 19.2772 174.348 19.7732C174.45 20.032 174.502 20.3111 174.501 20.5929C174.503 20.8784 174.451 21.1612 174.348 21.4237C174.25 21.6726 174.11 21.8988 173.935 22.0902C173.76 22.2784 173.552 22.4268 173.325 22.5268C173.091 22.6323 172.841 22.6857 172.588 22.6837C172.334 22.6855 172.082 22.6322 171.848 22.5268C171.62 22.4261 171.413 22.2778 171.238 22.0902C171.062 21.8989 170.921 21.6727 170.823 21.4237C170.72 21.1612 170.668 20.8784 170.671 20.5929C170.669 20.3112 170.721 20.032 170.823 19.7732H170.825Z" fill="#5987C5"/>
</g>
</g>
<defs>
<clipPath id="clip0_70_1498">
<rect width="174" height="24" fill="white" transform="translate(0.5)"/>
</clipPath>
</defs>
</svg>
