<svg width="167" height="34" viewBox="0 0 167 34" fill="none" xmlns="http://www.w3.org/2000/svg">
<g id="Logo-Red_Hat-OpenShift_Dedicated-A-Standard-RGB 1" clip-path="url(#clip0_70_1475)">
<path id="Vector" d="M36.5874 30.2594C33.68 30.2594 31.4001 28.0303 31.4001 25.1971C31.4001 22.3638 33.68 20.1333 36.5874 20.1333C39.4948 20.1333 41.7938 22.3638 41.7938 25.1971C41.7938 28.0303 39.4934 30.2594 36.5874 30.2594ZM36.5874 21.494C34.5213 21.494 32.9251 23.0933 32.9251 25.1971C32.9251 27.3008 34.5213 28.9001 36.5874 28.9001C38.6535 28.9001 40.2634 27.2819 40.2634 25.1971C40.2634 23.1122 38.6672 21.494 36.5874 21.494Z" fill="black"/>
<path id="Vector_2" d="M43.2119 22.9666H44.6177V23.6543C45.2334 23.1271 46.0253 22.8423 46.8413 22.8546C48.8965 22.8546 50.5023 24.4729 50.5023 26.5294C50.5023 28.5859 48.8924 30.2176 46.8126 30.2176C46.0284 30.2199 45.2642 29.9741 44.6327 29.5164V33.0091H43.2119V22.9666ZM44.6382 24.93V28.1557C45.0931 28.6749 45.8494 28.9972 46.6605 28.9972C48.058 28.9972 49.1116 27.9454 49.1116 26.5429C49.1116 25.1404 48.0429 24.0751 46.6605 24.0751C45.8343 24.0751 45.1081 24.3839 44.6382 24.93Z" fill="black"/>
<path id="Vector_3" d="M55.3675 30.2324C53.2302 30.2324 51.5627 28.6142 51.5627 26.5294C51.5627 24.4675 53.1589 22.8546 55.1963 22.8546C57.1912 22.8546 58.701 24.4809 58.701 26.586V26.9906H52.9753C53.0633 27.5657 53.3599 28.09 53.8103 28.4666C54.2606 28.8431 54.8342 29.0465 55.4251 29.039C56.0933 29.0513 56.7443 28.8301 57.2624 28.4146L58.1749 29.2979C57.3798 29.9246 56.3859 30.2554 55.3675 30.2324ZM52.9877 25.9401H57.2912C57.0774 24.8464 56.2225 24.0332 55.1675 24.0332C54.0714 24.0332 53.2014 24.8046 52.9877 25.9401Z" fill="black"/>
<path id="Vector_4" d="M60.0547 22.9666H61.4796V23.6827C61.7657 23.4022 62.1067 23.1817 62.4818 23.0345C62.8569 22.8873 63.2585 22.8165 63.6622 22.8263C65.3282 22.8263 66.497 23.9632 66.497 25.6178V30.1057H65.072V25.8525C65.072 24.7305 64.3746 24.0427 63.2772 24.0427C62.9221 24.0309 62.5699 24.11 62.2551 24.2721C61.9403 24.4342 61.6736 24.6739 61.481 24.9678V30.1017H60.0561L60.0547 22.9666Z" fill="black"/>
<path id="Vector_5" d="M68.3205 27.441C69.4029 28.4794 70.5127 28.9837 71.7554 28.9837C73.194 28.9837 74.1778 28.3095 74.1778 27.3426C74.1778 26.4728 73.6064 26.0385 72.1541 25.7999L70.4867 25.5302C68.6631 25.2362 67.7643 24.3947 67.7643 22.9787C67.7643 21.2674 69.218 20.1589 71.4417 20.1589C72.8924 20.1629 74.3027 20.6305 75.4602 21.4913L74.6381 22.6133C73.5557 21.8041 72.4871 21.4077 71.3759 21.4077C70.0784 21.4077 69.2097 21.997 69.2097 22.8654C69.2097 23.6651 69.7085 24.0441 70.9909 24.2544L72.5939 24.5039C74.7025 24.841 75.6575 25.696 75.6575 27.2253C75.6575 29.035 74.0613 30.2406 71.6842 30.2406C70.8883 30.2393 70.1006 30.0824 69.3668 29.7792C68.633 29.4759 67.9677 29.0323 67.4094 28.474L68.3205 27.441Z" fill="black"/>
<path id="Vector_6" d="M76.8687 20.2884L78.2936 19.9796V23.6827C78.5794 23.4025 78.9199 23.1822 79.2945 23.0351C79.6691 22.8879 80.0702 22.8169 80.4734 22.8264C82.1408 22.8264 83.3095 23.9632 83.3095 25.6178V30.1058H81.8846V25.8525C81.8846 24.7305 81.1859 24.0428 80.0884 24.0428C79.7335 24.0312 79.3817 24.1104 79.0671 24.2725C78.7526 24.4346 78.4861 24.6742 78.2936 24.9678V30.1017H76.8687V20.2884Z" fill="black"/>
<path id="Vector_7" d="M84.7907 20.9465C84.7898 20.8332 84.8116 20.7208 84.8548 20.6159C84.8981 20.5109 84.9619 20.4153 85.0427 20.3347C85.1235 20.254 85.2197 20.1898 85.3258 20.1458C85.4318 20.1017 85.5456 20.0787 85.6607 20.078C85.8889 20.0869 86.1047 20.1823 86.263 20.3443C86.4212 20.5063 86.5096 20.7224 86.5096 20.9471C86.5096 21.1719 86.4212 21.3879 86.263 21.55C86.1047 21.712 85.8889 21.8074 85.6607 21.8163C85.5455 21.8156 85.4316 21.7925 85.3254 21.7484C85.2193 21.7042 85.1231 21.6399 85.0423 21.5591C84.9614 21.4783 84.8976 21.3826 84.8544 21.2775C84.8113 21.1723 84.7896 21.0598 84.7907 20.9465ZM86.3732 30.1057H84.9482V22.9666H86.3732V30.1057Z" fill="black"/>
<path id="Vector_8" d="M89.1367 22.9666V21.8878C89.1367 20.4044 90.0067 19.5885 91.6029 19.5885C91.9492 19.5836 92.2945 19.6258 92.6291 19.7139V20.9344C92.3387 20.8455 92.0357 20.8031 91.7317 20.8089C90.948 20.8089 90.563 21.1596 90.563 21.9161V22.9679H92.6291V24.1466H90.5616V30.1071H89.1367V24.1466H87.4556V22.9666H89.1367Z" fill="black"/>
<path id="Vector_9" d="M94.7939 24.1452H93.2566V22.9666H94.7952V21.1434L96.2051 20.8076V22.9653H98.3424V24.1439H96.2051V28.0101C96.2051 28.7397 96.5051 29.0067 97.2738 29.0067C97.6286 29.0162 97.982 28.959 98.315 28.8381V30.0168C97.8765 30.1509 97.4206 30.2218 96.9614 30.2271C95.5502 30.2271 94.7952 29.5677 94.7952 28.3392L94.7939 24.1452Z" fill="black"/>
<path id="Vector_10" d="M102.631 20.2885H105.919C108.954 20.2885 111.163 22.3504 111.163 25.1971C111.163 28.0439 108.97 30.1058 105.919 30.1058H102.631V20.2885ZM103.727 21.2702V29.1241H105.979C108.288 29.1241 110.054 27.4276 110.054 25.1971C110.054 22.9666 108.288 21.2675 105.979 21.2675L103.727 21.2702Z" fill="black"/>
<path id="Vector_11" d="M116.039 30.2326C115.553 30.2375 115.071 30.1465 114.621 29.965C114.171 29.7835 113.763 29.5151 113.42 29.1757C113.077 28.8363 112.807 28.4327 112.626 27.9889C112.444 27.5451 112.355 27.0699 112.363 26.5915C112.363 24.5687 113.915 22.972 115.883 22.972C117.777 22.972 119.259 24.5714 119.259 26.5915V26.9138H113.397C113.553 28.3015 114.665 29.3263 116.076 29.3263C116.817 29.3263 117.558 29.0877 118.042 28.6804L118.698 29.3681C117.937 29.9455 116.999 30.2504 116.039 30.2326ZM113.436 26.0804H118.209C118.024 24.8317 117.04 23.8783 115.858 23.8783C114.614 23.8783 113.63 24.7899 113.431 26.0804H113.436Z" fill="black"/>
<path id="Vector_12" d="M126.312 29.3586C125.683 29.9252 124.856 30.2314 124.003 30.2136C121.995 30.2136 120.412 28.6291 120.412 26.582C120.412 24.5349 121.981 22.9625 124.018 22.9625C124.849 22.9619 125.655 23.2445 126.298 23.7622V20.2884L127.352 20.0497V30.1057H126.312V29.3586ZM124.103 29.302C124.52 29.3115 124.934 29.2281 125.314 29.0581C125.693 28.8881 126.029 28.6359 126.295 28.3202V24.8464C126.025 24.5363 125.688 24.2887 125.309 24.1214C124.93 23.954 124.519 23.871 124.103 23.8782C122.607 23.8782 121.454 25.0285 121.454 26.5752C121.454 28.122 122.607 29.306 124.103 29.306V29.302Z" fill="black"/>
<path id="Vector_13" d="M128.962 21.0315C128.962 20.8457 129.038 20.6678 129.171 20.5364C129.305 20.4051 129.485 20.3309 129.674 20.3302C129.768 20.3293 129.861 20.3469 129.948 20.3818C130.035 20.4167 130.114 20.4683 130.18 20.5336C130.246 20.5989 130.299 20.6766 130.334 20.7621C130.37 20.8475 130.388 20.9391 130.387 21.0315C130.386 21.2173 130.311 21.3955 130.178 21.5269C130.044 21.6584 129.863 21.7324 129.674 21.7327C129.486 21.7296 129.307 21.6547 129.174 21.5239C129.041 21.393 128.965 21.2165 128.962 21.0315ZM130.195 30.1058H129.153V23.0785H130.207L130.195 30.1058Z" fill="black"/>
<path id="Vector_14" d="M137.413 28.4147L138.067 29.1159C137.329 29.8281 136.338 30.2303 135.304 30.2379C133.265 30.2379 131.669 28.6386 131.669 26.5969C131.669 24.5552 133.265 22.9491 135.304 22.9491C136.345 22.9524 137.344 23.3492 138.096 24.0576L137.426 24.8155C137.157 24.5294 136.831 24.3001 136.469 24.1416C136.107 23.983 135.715 23.8985 135.319 23.8931C133.852 23.8931 132.716 25.0852 132.716 26.5901C132.716 28.118 133.869 29.2966 135.337 29.2966C136.101 29.2926 136.8 28.9973 137.413 28.4147Z" fill="black"/>
<path id="Vector_15" d="M138.922 28.1139C138.922 26.7964 140.018 25.9684 141.772 25.9684C142.499 25.9635 143.216 26.1265 143.867 26.4444V25.5193C143.867 24.3973 143.211 23.8229 141.972 23.8229C141.273 23.8229 140.59 24.0049 139.735 24.4392L139.336 23.6395C140.361 23.1486 141.202 22.9382 142.076 22.9382C143.886 22.9382 144.899 23.808 144.899 25.3791V30.099H143.873V29.4112C143.232 29.9541 142.409 30.2425 141.564 30.2203C139.991 30.2325 138.922 29.3761 138.922 28.1139ZM141.743 29.4179C142.598 29.4179 143.297 29.1658 143.867 28.6088V27.29C143.282 26.8975 142.627 26.729 141.801 26.729C140.661 26.729 139.934 27.2684 139.934 28.0896C139.934 28.8718 140.675 29.4179 141.743 29.4179Z" fill="black"/>
<path id="Vector_16" d="M147.258 23.9646H145.719V23.0799H147.258V21.2999L148.298 21.0302V23.0772H150.45V23.9646H148.298V28.2704C148.298 29.027 148.612 29.3223 149.394 29.3223C149.75 29.3334 150.104 29.2709 150.434 29.1389V30.0505C150.029 30.1764 149.605 30.2383 149.18 30.2339C147.947 30.2339 147.262 29.6446 147.262 28.5361L147.258 23.9646Z" fill="black"/>
<path id="Vector_17" d="M154.696 30.2326C154.21 30.2377 153.728 30.1468 153.278 29.9654C152.828 29.7839 152.42 29.5156 152.077 29.1762C151.734 28.8368 151.464 28.4332 151.282 27.9892C151.1 27.5453 151.011 27.07 151.019 26.5915C151.019 24.5687 152.573 22.972 154.539 22.972C156.435 22.972 157.916 24.5714 157.916 26.5915V26.9138H152.06C152.217 28.3015 153.328 29.3263 154.739 29.3263C155.48 29.3263 156.221 29.0877 156.705 28.6804L157.361 29.3681C156.599 29.9466 155.659 30.2516 154.696 30.2326ZM152.093 26.0804H156.867C156.68 24.8317 155.698 23.8783 154.514 23.8783C153.267 23.8783 152.288 24.7899 152.089 26.0804H152.093Z" fill="black"/>
<path id="Vector_18" d="M164.97 29.3586C164.34 29.9251 163.513 30.2313 162.661 30.2136C160.652 30.2136 159.07 28.629 159.07 26.582C159.07 24.5349 160.637 22.9625 162.676 22.9625C163.507 22.9619 164.313 23.2445 164.956 23.7622V20.2884L166.009 20.0537V30.1097H164.97V29.3586ZM162.761 29.302C163.178 29.3115 163.592 29.2281 163.971 29.0581C164.351 28.8881 164.686 28.6359 164.953 28.3202V24.8464C164.683 24.5363 164.346 24.2887 163.967 24.1213C163.588 23.954 163.176 23.8709 162.761 23.8782C161.265 23.8782 160.111 25.0285 160.111 26.5752C160.111 28.122 161.265 29.306 162.761 29.306V29.302Z" fill="black"/>
<path id="Vector_19" d="M18.1745 11.9625C19.8885 11.9625 22.3684 11.6146 22.3684 9.60795C22.3735 9.45309 22.3592 9.29819 22.3259 9.14675L21.3052 4.78289C21.0695 3.82274 20.8626 3.38716 19.15 2.54433C17.8169 1.8741 14.9218 0.769653 14.0641 0.769653C13.2667 0.769653 13.0297 1.78645 12.0843 1.78645C11.1691 1.78645 10.4895 1.03127 9.63319 1.03127C8.81112 1.03127 8.27541 1.58282 7.86164 2.71694C7.86164 2.71694 6.70937 5.91566 6.5614 6.37956C6.53696 6.4646 6.52587 6.55283 6.52852 6.64117C6.52852 7.88452 11.5061 11.9625 18.1745 11.9625ZM22.6342 10.4225C22.8712 11.5269 22.8712 11.6429 22.8712 11.7885C22.8712 13.6765 20.7147 14.7243 17.8799 14.7243C11.4609 14.7229 5.85442 11.032 5.85442 8.59116C5.85405 8.25121 5.92446 7.9148 6.06131 7.60268C3.75678 7.71731 0.774048 8.12456 0.774048 10.7111C0.774048 14.9562 10.9937 20.1886 19.0856 20.1886C25.2895 20.1886 26.8541 17.4268 26.8541 15.2462C26.8541 13.5308 25.347 11.5836 22.6301 10.4211" fill="#EE0000"/>
<path id="Vector_20" d="M22.63 10.4212C22.867 11.5256 22.867 11.6416 22.867 11.7873C22.867 13.6752 20.7105 14.723 17.8757 14.723C11.4609 14.723 5.85437 11.0321 5.85437 8.59123C5.854 8.25129 5.92441 7.91488 6.06126 7.60275L6.56272 6.38098C6.53795 6.46552 6.5264 6.55329 6.52847 6.64125C6.52847 7.8846 11.5061 11.9626 18.1744 11.9626C19.8884 11.9626 22.3683 11.6146 22.3683 9.60803C22.3735 9.45316 22.3592 9.29826 22.3259 9.14683L22.63 10.4212Z" fill="black"/>
<path id="Vector_21" d="M80.1364 13.2167C80.1364 14.8201 81.116 15.5995 82.9027 15.5995C83.4527 15.586 83.9994 15.51 84.5317 15.373V13.5147C84.1915 13.6208 83.8364 13.6736 83.4795 13.6711C82.7437 13.6711 82.4711 13.4446 82.4711 12.7636V9.91275H84.603V7.99783H82.4711V5.57047L80.1419 6.06673V7.99783H78.5964V9.91275H80.1378L80.1364 13.2167ZM72.8748 13.2598C72.8748 12.7636 73.3804 12.5222 74.1435 12.5222C74.61 12.5248 75.0745 12.5819 75.5273 12.6921V13.6563C75.0823 13.8955 74.5821 14.0177 74.075 14.0109C73.327 14.0109 72.8789 13.7278 72.8789 13.2598M73.5914 15.6278C74.4134 15.6278 75.0766 15.4579 75.6959 15.0466V15.5011H78.0004V10.6922C78.0004 8.86359 76.7481 7.86028 74.6587 7.86028C73.4914 7.86028 72.3377 8.12999 71.0964 8.68289L71.9322 10.3713C72.8255 10.0018 73.5763 9.7752 74.2381 9.7752C75.1972 9.7752 75.6931 10.1434 75.6931 10.8958V11.264C75.1285 11.1201 74.5473 11.0485 73.9641 11.0509C72.0034 11.0509 70.8224 11.86 70.8224 13.307C70.8224 14.6259 71.8883 15.6319 73.5886 15.6319M60.9233 15.5051H63.4019V11.6146H67.5519V15.5011H70.0305V5.57317H67.5574V9.38817H63.4073V5.57317H60.9288L60.9233 15.5051ZM51.4846 11.7427C51.4846 10.6639 52.3492 9.84128 53.4877 9.84128C54.081 9.82878 54.6573 10.0368 55.1017 10.4238V13.0414C54.886 13.2406 54.6323 13.3959 54.3553 13.4982C54.0783 13.6005 53.7834 13.6478 53.4877 13.6374C52.3642 13.6374 51.4846 12.8148 51.4846 11.7373M55.1305 15.4957H57.4364V5.0769L55.1072 5.57317V8.39565C54.5143 8.0648 53.8432 7.89363 53.1616 7.89939C50.9434 7.89939 49.1993 9.58641 49.1993 11.7427C49.1924 12.2485 49.2879 12.7507 49.4802 13.2198C49.6726 13.6889 49.9579 14.1156 50.3197 14.475C50.6814 14.8344 51.1122 15.1193 51.5869 15.3131C52.0617 15.5068 52.5709 15.6056 53.0849 15.6036C53.8199 15.607 54.5368 15.3788 55.1305 14.9522V15.4957ZM44.5546 9.73744C45.289 9.73744 45.9083 10.2054 46.1535 10.9282H42.9735C43.2037 10.1771 43.7805 9.73744 44.5587 9.73744M40.621 11.7562C40.621 13.9408 42.4364 15.6427 44.7697 15.6427C46.0521 15.6427 46.9893 15.3015 47.9552 14.5072L46.4125 13.1587C46.0521 13.5282 45.5192 13.7264 44.8862 13.7264C44.4881 13.7374 44.096 13.6296 43.7614 13.417C43.4269 13.2045 43.1656 12.8972 43.0119 12.5357H48.4443V11.9693C48.4443 9.58641 46.8167 7.87107 44.5971 7.87107C44.0753 7.86332 43.5572 7.95833 43.0733 8.15051C42.5894 8.34269 42.1494 8.62816 41.7792 8.99014C41.409 9.35212 41.1161 9.78329 40.9177 10.2583C40.7192 10.7333 40.6193 11.2426 40.6238 11.7562M36.6011 7.658C37.4232 7.658 37.8835 8.16775 37.8835 8.77863C37.8835 9.38952 37.4218 9.89927 36.6011 9.89927H34.1513V7.658H36.6011ZM31.6687 15.5011H34.1472V11.8843H36.0339L37.937 15.5011H40.7032L38.4836 11.5296C39.0477 11.3038 39.5302 10.9171 39.8692 10.4191C40.2081 9.9212 40.3878 9.33483 40.3853 8.73548C40.3853 6.94867 38.9591 5.57317 36.8231 5.57317H31.6728L31.6687 15.5011Z" fill="black"/>
</g>
<defs>
<clipPath id="clip0_70_1475">
<rect width="166" height="33" fill="white" transform="translate(0.5 0.5)"/>
</clipPath>
</defs>
</svg>
